M48
; DRILL file {KiCad 5.1.2+dfsg1-1} date Fri 26 Jul 2019 10:30:48 AM CDT
; FORMAT={-:-/ absolute / inch / decimal}
; #@! TF.CreationDate,2019-07-26T10:30:48-05:00
; #@! TF.GenerationSoftware,Kicad,Pcbnew,5.1.2+dfsg1-1
; #@! TF.FileFunction,Plated,1,2,PTH
FMAT,2
INCH
T1C0.0157
T2C0.0295
T3C0.0315
T4C0.0394
T5C0.0433
T6C0.0472
%
G90
G05
T1
X4.5Y-4.0
X4.6Y-3.75
X5.05Y-4.0
X5.05Y-4.1
X5.1Y-3.75
X5.2Y-3.35
X5.2Y-3.4
X5.3Y-3.5
X5.3Y-3.7
X5.4Y-4.45
X5.45Y-4.4
X5.55Y-4.45
X5.55Y-4.7
X5.9Y-4.2
X6.0Y-4.4
X6.0Y-4.9
X6.05Y-4.4
X6.05Y-4.85
X6.1Y-4.4
X6.2Y-3.65
X6.2Y-4.05
X6.25Y-3.65
X6.25Y-4.3
X6.298Y-3.648
X6.5Y-4.55
X6.6Y-4.65
X6.7Y-4.6
T2
X6.6Y-3.25
X6.65Y-3.25
X6.7Y-3.25
X5.55Y-3.25
X5.6Y-3.25
X5.65Y-3.25
X6.14Y-4.74
X6.19Y-4.74
X6.24Y-4.74
X4.25Y-4.0
X4.25Y-4.05
X4.25Y-4.1
X4.5Y-3.25
X4.55Y-3.25
X4.6Y-3.25
X6.075Y-3.25
X6.125Y-3.25
X6.175Y-3.25
X4.675Y-4.75
X4.725Y-4.75
X4.775Y-4.75
X5.025Y-3.25
X5.075Y-3.25
X5.125Y-3.25
X4.25Y-3.7
X4.25Y-3.75
X4.25Y-3.8
T3
X4.3Y-2.95
X4.3Y-3.25
X3.95Y-3.5
X4.25Y-3.5
X5.1Y-4.3016
X5.1Y-4.4
X4.2Y-5.0
X4.5Y-5.0
X5.875Y-2.95
X5.875Y-3.25
X6.7Y-3.6079
X6.7Y-3.8
X4.35Y-4.3
X4.35Y-4.3984
X7.0016Y-3.5
X7.1Y-3.5
X7.0016Y-3.8
X7.1Y-3.8
X4.0Y-4.6
X4.0Y-4.6984
X4.35Y-4.6
X4.35Y-4.6984
X5.35Y-2.95
X5.35Y-3.25
X4.5Y-3.5
X4.5Y-3.8
X4.8Y-3.6
X4.8Y-3.9
X4.9Y-3.6
X4.9Y-3.9
X5.0Y-3.6
X5.0Y-3.9
X5.1Y-3.6
X5.1Y-3.9
X5.2Y-3.6
X5.2Y-3.9
X5.3Y-3.6
X5.3Y-3.9
X5.4Y-3.6
X5.4Y-3.9
X5.5Y-3.6
X5.5Y-3.9
X5.6Y-3.6
X5.6Y-3.9
X5.7Y-3.6
X5.7Y-3.9
X5.8Y-3.6
X5.8Y-3.9
X5.9Y-3.6
X5.9Y-3.9
X6.0Y-3.6
X6.0Y-3.9
X6.1Y-3.6
X6.1Y-3.9
X6.45Y-4.75
X6.75Y-4.75
X5.9Y-4.45
X5.9Y-4.75
X4.825Y-2.95
X4.825Y-3.25
X6.4Y-3.6
X6.4Y-3.9
X6.4Y-2.95
X6.4Y-3.25
T4
X6.4Y-4.2
X6.4Y-4.3
X6.5Y-4.2
X6.5Y-4.3
X6.6Y-4.2
X6.6Y-4.3
T5
X4.7Y-4.2
X4.7Y-4.3
X4.7Y-4.4
T6
X6.6Y-3.0
X6.7Y-3.0
X4.0Y-3.7
X4.0Y-3.8
X5.9Y-5.0
X6.0Y-5.0
X6.1Y-5.0
X6.2Y-5.0
X6.075Y-3.0
X6.175Y-3.0
X5.3Y-5.0
X5.4Y-5.0
X5.5Y-5.0
X5.6Y-5.0
X4.0Y-4.0
X4.0Y-4.1
X4.7Y-5.0
X4.8Y-5.0
X4.9Y-5.0
X5.0Y-5.0
X5.025Y-3.0
X5.125Y-3.0
X5.55Y-3.0
X5.65Y-3.0
X4.0Y-4.3
X4.0Y-4.4
X4.5Y-3.0
X4.6Y-3.0
X6.5Y-5.0
X6.6Y-5.0
X6.7Y-5.0
T0
M30
