G04 #@! TF.GenerationSoftware,KiCad,Pcbnew,5.1.2+dfsg1-1*
G04 #@! TF.CreationDate,2019-07-26T10:31:36-05:00*
G04 #@! TF.ProjectId,PCB,5043422e-6b69-4636-9164-5f7063625858,0.0.0*
G04 #@! TF.SameCoordinates,Original*
G04 #@! TF.FileFunction,Soldermask,Top*
G04 #@! TF.FilePolarity,Negative*
%FSLAX46Y46*%
G04 Gerber Fmt 4.6, Leading zero omitted, Abs format (unit mm)*
G04 Created by KiCad (PCBNEW 5.1.2+dfsg1-1) date 2019-07-26 10:31:36*
%MOMM*%
%LPD*%
G04 APERTURE LIST*
%ADD10C,0.100000*%
G04 APERTURE END LIST*
D10*
G36*
X179372585Y-126748802D02*
G01*
X179522410Y-126778604D01*
X179804674Y-126895521D01*
X180058705Y-127065259D01*
X180274741Y-127281295D01*
X180444479Y-127535326D01*
X180561396Y-127817590D01*
X180574685Y-127884397D01*
X180618844Y-128106398D01*
X180621000Y-128117240D01*
X180621000Y-128422760D01*
X180561396Y-128722410D01*
X180444479Y-129004674D01*
X180274741Y-129258705D01*
X180058705Y-129474741D01*
X179804674Y-129644479D01*
X179522410Y-129761396D01*
X179372585Y-129791198D01*
X179222761Y-129821000D01*
X178917239Y-129821000D01*
X178767415Y-129791198D01*
X178617590Y-129761396D01*
X178335326Y-129644479D01*
X178081295Y-129474741D01*
X177865259Y-129258705D01*
X177695521Y-129004674D01*
X177578604Y-128722410D01*
X177519000Y-128422760D01*
X177519000Y-128117240D01*
X177521157Y-128106398D01*
X177565315Y-127884397D01*
X177578604Y-127817590D01*
X177695521Y-127535326D01*
X177865259Y-127281295D01*
X178081295Y-127065259D01*
X178335326Y-126895521D01*
X178617590Y-126778604D01*
X178767415Y-126748802D01*
X178917239Y-126719000D01*
X179222761Y-126719000D01*
X179372585Y-126748802D01*
X179372585Y-126748802D01*
G37*
G36*
X100632585Y-126748802D02*
G01*
X100782410Y-126778604D01*
X101064674Y-126895521D01*
X101318705Y-127065259D01*
X101534741Y-127281295D01*
X101704479Y-127535326D01*
X101821396Y-127817590D01*
X101834685Y-127884397D01*
X101878844Y-128106398D01*
X101881000Y-128117240D01*
X101881000Y-128422760D01*
X101821396Y-128722410D01*
X101704479Y-129004674D01*
X101534741Y-129258705D01*
X101318705Y-129474741D01*
X101064674Y-129644479D01*
X100782410Y-129761396D01*
X100632585Y-129791198D01*
X100482761Y-129821000D01*
X100177239Y-129821000D01*
X100027415Y-129791198D01*
X99877590Y-129761396D01*
X99595326Y-129644479D01*
X99341295Y-129474741D01*
X99125259Y-129258705D01*
X98955521Y-129004674D01*
X98838604Y-128722410D01*
X98779000Y-128422760D01*
X98779000Y-128117240D01*
X98781157Y-128106398D01*
X98825315Y-127884397D01*
X98838604Y-127817590D01*
X98955521Y-127535326D01*
X99125259Y-127281295D01*
X99341295Y-127065259D01*
X99595326Y-126895521D01*
X99877590Y-126778604D01*
X100027415Y-126748802D01*
X100177239Y-126719000D01*
X100482761Y-126719000D01*
X100632585Y-126748802D01*
X100632585Y-126748802D01*
G37*
G36*
X119560548Y-125862326D02*
G01*
X119734157Y-125914990D01*
X119894156Y-126000511D01*
X119908612Y-126012375D01*
X120034397Y-126115603D01*
X120111845Y-126209975D01*
X120149489Y-126255844D01*
X120235010Y-126415843D01*
X120287674Y-126589452D01*
X120301000Y-126724757D01*
X120301000Y-127275244D01*
X120287674Y-127410548D01*
X120235010Y-127584157D01*
X120149489Y-127744156D01*
X120113729Y-127787729D01*
X120034397Y-127884397D01*
X119894155Y-127999489D01*
X119734156Y-128085010D01*
X119560547Y-128137674D01*
X119380000Y-128155456D01*
X119199452Y-128137674D01*
X119025843Y-128085010D01*
X118865844Y-127999489D01*
X118822271Y-127963729D01*
X118725603Y-127884397D01*
X118610511Y-127744155D01*
X118524991Y-127584158D01*
X118512348Y-127542480D01*
X118472326Y-127410547D01*
X118459000Y-127275243D01*
X118459000Y-126724756D01*
X118472326Y-126589452D01*
X118524990Y-126415843D01*
X118610512Y-126255844D01*
X118648156Y-126209975D01*
X118725604Y-126115603D01*
X118851389Y-126012375D01*
X118865845Y-126000511D01*
X119025844Y-125914990D01*
X119199453Y-125862326D01*
X119380000Y-125844544D01*
X119560548Y-125862326D01*
X119560548Y-125862326D01*
G37*
G36*
X124640548Y-125862326D02*
G01*
X124814157Y-125914990D01*
X124974156Y-126000511D01*
X124988612Y-126012375D01*
X125114397Y-126115603D01*
X125191845Y-126209975D01*
X125229489Y-126255844D01*
X125315010Y-126415843D01*
X125367674Y-126589452D01*
X125381000Y-126724757D01*
X125381000Y-127275244D01*
X125367674Y-127410548D01*
X125315010Y-127584157D01*
X125229489Y-127744156D01*
X125193729Y-127787729D01*
X125114397Y-127884397D01*
X124974155Y-127999489D01*
X124814156Y-128085010D01*
X124640547Y-128137674D01*
X124460000Y-128155456D01*
X124279452Y-128137674D01*
X124105843Y-128085010D01*
X123945844Y-127999489D01*
X123902271Y-127963729D01*
X123805603Y-127884397D01*
X123690511Y-127744155D01*
X123604991Y-127584158D01*
X123592348Y-127542480D01*
X123552326Y-127410547D01*
X123539000Y-127275243D01*
X123539000Y-126724756D01*
X123552326Y-126589452D01*
X123604990Y-126415843D01*
X123690512Y-126255844D01*
X123728156Y-126209975D01*
X123805604Y-126115603D01*
X123931389Y-126012375D01*
X123945845Y-126000511D01*
X124105844Y-125914990D01*
X124279453Y-125862326D01*
X124460000Y-125844544D01*
X124640548Y-125862326D01*
X124640548Y-125862326D01*
G37*
G36*
X165280548Y-125862326D02*
G01*
X165454157Y-125914990D01*
X165614156Y-126000511D01*
X165628612Y-126012375D01*
X165754397Y-126115603D01*
X165831845Y-126209975D01*
X165869489Y-126255844D01*
X165955010Y-126415843D01*
X166007674Y-126589452D01*
X166021000Y-126724757D01*
X166021000Y-127275244D01*
X166007674Y-127410548D01*
X165955010Y-127584157D01*
X165869489Y-127744156D01*
X165833729Y-127787729D01*
X165754397Y-127884397D01*
X165614155Y-127999489D01*
X165454156Y-128085010D01*
X165280547Y-128137674D01*
X165100000Y-128155456D01*
X164919452Y-128137674D01*
X164745843Y-128085010D01*
X164585844Y-127999489D01*
X164542271Y-127963729D01*
X164445603Y-127884397D01*
X164330511Y-127744155D01*
X164244991Y-127584158D01*
X164232348Y-127542480D01*
X164192326Y-127410547D01*
X164179000Y-127275243D01*
X164179000Y-126724756D01*
X164192326Y-126589452D01*
X164244990Y-126415843D01*
X164330512Y-126255844D01*
X164368156Y-126209975D01*
X164445604Y-126115603D01*
X164571389Y-126012375D01*
X164585845Y-126000511D01*
X164745844Y-125914990D01*
X164919453Y-125862326D01*
X165100000Y-125844544D01*
X165280548Y-125862326D01*
X165280548Y-125862326D01*
G37*
G36*
X167820548Y-125862326D02*
G01*
X167994157Y-125914990D01*
X168154156Y-126000511D01*
X168168612Y-126012375D01*
X168294397Y-126115603D01*
X168371845Y-126209975D01*
X168409489Y-126255844D01*
X168495010Y-126415843D01*
X168547674Y-126589452D01*
X168561000Y-126724757D01*
X168561000Y-127275244D01*
X168547674Y-127410548D01*
X168495010Y-127584157D01*
X168409489Y-127744156D01*
X168373729Y-127787729D01*
X168294397Y-127884397D01*
X168154155Y-127999489D01*
X167994156Y-128085010D01*
X167820547Y-128137674D01*
X167640000Y-128155456D01*
X167459452Y-128137674D01*
X167285843Y-128085010D01*
X167125844Y-127999489D01*
X167082271Y-127963729D01*
X166985603Y-127884397D01*
X166870511Y-127744155D01*
X166784991Y-127584158D01*
X166772348Y-127542480D01*
X166732326Y-127410547D01*
X166719000Y-127275243D01*
X166719000Y-126724756D01*
X166732326Y-126589452D01*
X166784990Y-126415843D01*
X166870512Y-126255844D01*
X166908156Y-126209975D01*
X166985604Y-126115603D01*
X167111389Y-126012375D01*
X167125845Y-126000511D01*
X167285844Y-125914990D01*
X167459453Y-125862326D01*
X167640000Y-125844544D01*
X167820548Y-125862326D01*
X167820548Y-125862326D01*
G37*
G36*
X134800548Y-125862326D02*
G01*
X134974157Y-125914990D01*
X135134156Y-126000511D01*
X135148612Y-126012375D01*
X135274397Y-126115603D01*
X135351845Y-126209975D01*
X135389489Y-126255844D01*
X135475010Y-126415843D01*
X135527674Y-126589452D01*
X135541000Y-126724757D01*
X135541000Y-127275244D01*
X135527674Y-127410548D01*
X135475010Y-127584157D01*
X135389489Y-127744156D01*
X135353729Y-127787729D01*
X135274397Y-127884397D01*
X135134155Y-127999489D01*
X134974156Y-128085010D01*
X134800547Y-128137674D01*
X134620000Y-128155456D01*
X134439452Y-128137674D01*
X134265843Y-128085010D01*
X134105844Y-127999489D01*
X134062271Y-127963729D01*
X133965603Y-127884397D01*
X133850511Y-127744155D01*
X133764991Y-127584158D01*
X133752348Y-127542480D01*
X133712326Y-127410547D01*
X133699000Y-127275243D01*
X133699000Y-126724756D01*
X133712326Y-126589452D01*
X133764990Y-126415843D01*
X133850512Y-126255844D01*
X133888156Y-126209975D01*
X133965604Y-126115603D01*
X134091389Y-126012375D01*
X134105845Y-126000511D01*
X134265844Y-125914990D01*
X134439453Y-125862326D01*
X134620000Y-125844544D01*
X134800548Y-125862326D01*
X134800548Y-125862326D01*
G37*
G36*
X137340548Y-125862326D02*
G01*
X137514157Y-125914990D01*
X137674156Y-126000511D01*
X137688612Y-126012375D01*
X137814397Y-126115603D01*
X137891845Y-126209975D01*
X137929489Y-126255844D01*
X138015010Y-126415843D01*
X138067674Y-126589452D01*
X138081000Y-126724757D01*
X138081000Y-127275244D01*
X138067674Y-127410548D01*
X138015010Y-127584157D01*
X137929489Y-127744156D01*
X137893729Y-127787729D01*
X137814397Y-127884397D01*
X137674155Y-127999489D01*
X137514156Y-128085010D01*
X137340547Y-128137674D01*
X137160000Y-128155456D01*
X136979452Y-128137674D01*
X136805843Y-128085010D01*
X136645844Y-127999489D01*
X136602271Y-127963729D01*
X136505603Y-127884397D01*
X136390511Y-127744155D01*
X136304991Y-127584158D01*
X136292348Y-127542480D01*
X136252326Y-127410547D01*
X136239000Y-127275243D01*
X136239000Y-126724756D01*
X136252326Y-126589452D01*
X136304990Y-126415843D01*
X136390512Y-126255844D01*
X136428156Y-126209975D01*
X136505604Y-126115603D01*
X136631389Y-126012375D01*
X136645845Y-126000511D01*
X136805844Y-125914990D01*
X136979453Y-125862326D01*
X137160000Y-125844544D01*
X137340548Y-125862326D01*
X137340548Y-125862326D01*
G37*
G36*
X150040548Y-125862326D02*
G01*
X150214157Y-125914990D01*
X150374156Y-126000511D01*
X150388612Y-126012375D01*
X150514397Y-126115603D01*
X150591845Y-126209975D01*
X150629489Y-126255844D01*
X150715010Y-126415843D01*
X150767674Y-126589452D01*
X150781000Y-126724757D01*
X150781000Y-127275244D01*
X150767674Y-127410548D01*
X150715010Y-127584157D01*
X150629489Y-127744156D01*
X150593729Y-127787729D01*
X150514397Y-127884397D01*
X150374155Y-127999489D01*
X150214156Y-128085010D01*
X150040547Y-128137674D01*
X149860000Y-128155456D01*
X149679452Y-128137674D01*
X149505843Y-128085010D01*
X149345844Y-127999489D01*
X149302271Y-127963729D01*
X149205603Y-127884397D01*
X149090511Y-127744155D01*
X149004991Y-127584158D01*
X148992348Y-127542480D01*
X148952326Y-127410547D01*
X148939000Y-127275243D01*
X148939000Y-126724756D01*
X148952326Y-126589452D01*
X149004990Y-126415843D01*
X149090512Y-126255844D01*
X149128156Y-126209975D01*
X149205604Y-126115603D01*
X149331389Y-126012375D01*
X149345845Y-126000511D01*
X149505844Y-125914990D01*
X149679453Y-125862326D01*
X149860000Y-125844544D01*
X150040548Y-125862326D01*
X150040548Y-125862326D01*
G37*
G36*
X152580548Y-125862326D02*
G01*
X152754157Y-125914990D01*
X152914156Y-126000511D01*
X152928612Y-126012375D01*
X153054397Y-126115603D01*
X153131845Y-126209975D01*
X153169489Y-126255844D01*
X153255010Y-126415843D01*
X153307674Y-126589452D01*
X153321000Y-126724757D01*
X153321000Y-127275244D01*
X153307674Y-127410548D01*
X153255010Y-127584157D01*
X153169489Y-127744156D01*
X153133729Y-127787729D01*
X153054397Y-127884397D01*
X152914155Y-127999489D01*
X152754156Y-128085010D01*
X152580547Y-128137674D01*
X152400000Y-128155456D01*
X152219452Y-128137674D01*
X152045843Y-128085010D01*
X151885844Y-127999489D01*
X151842271Y-127963729D01*
X151745603Y-127884397D01*
X151630511Y-127744155D01*
X151544991Y-127584158D01*
X151532348Y-127542480D01*
X151492326Y-127410547D01*
X151479000Y-127275243D01*
X151479000Y-126724756D01*
X151492326Y-126589452D01*
X151544990Y-126415843D01*
X151630512Y-126255844D01*
X151668156Y-126209975D01*
X151745604Y-126115603D01*
X151871389Y-126012375D01*
X151885845Y-126000511D01*
X152045844Y-125914990D01*
X152219453Y-125862326D01*
X152400000Y-125844544D01*
X152580548Y-125862326D01*
X152580548Y-125862326D01*
G37*
G36*
X155120548Y-125862326D02*
G01*
X155294157Y-125914990D01*
X155454156Y-126000511D01*
X155468612Y-126012375D01*
X155594397Y-126115603D01*
X155671845Y-126209975D01*
X155709489Y-126255844D01*
X155795010Y-126415843D01*
X155847674Y-126589452D01*
X155861000Y-126724757D01*
X155861000Y-127275244D01*
X155847674Y-127410548D01*
X155795010Y-127584157D01*
X155709489Y-127744156D01*
X155673729Y-127787729D01*
X155594397Y-127884397D01*
X155454155Y-127999489D01*
X155294156Y-128085010D01*
X155120547Y-128137674D01*
X154940000Y-128155456D01*
X154759452Y-128137674D01*
X154585843Y-128085010D01*
X154425844Y-127999489D01*
X154382271Y-127963729D01*
X154285603Y-127884397D01*
X154170511Y-127744155D01*
X154084991Y-127584158D01*
X154072348Y-127542480D01*
X154032326Y-127410547D01*
X154019000Y-127275243D01*
X154019000Y-126724756D01*
X154032326Y-126589452D01*
X154084990Y-126415843D01*
X154170512Y-126255844D01*
X154208156Y-126209975D01*
X154285604Y-126115603D01*
X154411389Y-126012375D01*
X154425845Y-126000511D01*
X154585844Y-125914990D01*
X154759453Y-125862326D01*
X154940000Y-125844544D01*
X155120548Y-125862326D01*
X155120548Y-125862326D01*
G37*
G36*
X122100548Y-125862326D02*
G01*
X122274157Y-125914990D01*
X122434156Y-126000511D01*
X122448612Y-126012375D01*
X122574397Y-126115603D01*
X122651845Y-126209975D01*
X122689489Y-126255844D01*
X122775010Y-126415843D01*
X122827674Y-126589452D01*
X122841000Y-126724757D01*
X122841000Y-127275244D01*
X122827674Y-127410548D01*
X122775010Y-127584157D01*
X122689489Y-127744156D01*
X122653729Y-127787729D01*
X122574397Y-127884397D01*
X122434155Y-127999489D01*
X122274156Y-128085010D01*
X122100547Y-128137674D01*
X121920000Y-128155456D01*
X121739452Y-128137674D01*
X121565843Y-128085010D01*
X121405844Y-127999489D01*
X121362271Y-127963729D01*
X121265603Y-127884397D01*
X121150511Y-127744155D01*
X121064991Y-127584158D01*
X121052348Y-127542480D01*
X121012326Y-127410547D01*
X120999000Y-127275243D01*
X120999000Y-126724756D01*
X121012326Y-126589452D01*
X121064990Y-126415843D01*
X121150512Y-126255844D01*
X121188156Y-126209975D01*
X121265604Y-126115603D01*
X121391389Y-126012375D01*
X121405845Y-126000511D01*
X121565844Y-125914990D01*
X121739453Y-125862326D01*
X121920000Y-125844544D01*
X122100548Y-125862326D01*
X122100548Y-125862326D01*
G37*
G36*
X139880548Y-125862326D02*
G01*
X140054157Y-125914990D01*
X140214156Y-126000511D01*
X140228612Y-126012375D01*
X140354397Y-126115603D01*
X140431845Y-126209975D01*
X140469489Y-126255844D01*
X140555010Y-126415843D01*
X140607674Y-126589452D01*
X140621000Y-126724757D01*
X140621000Y-127275244D01*
X140607674Y-127410548D01*
X140555010Y-127584157D01*
X140469489Y-127744156D01*
X140433729Y-127787729D01*
X140354397Y-127884397D01*
X140214155Y-127999489D01*
X140054156Y-128085010D01*
X139880547Y-128137674D01*
X139700000Y-128155456D01*
X139519452Y-128137674D01*
X139345843Y-128085010D01*
X139185844Y-127999489D01*
X139142271Y-127963729D01*
X139045603Y-127884397D01*
X138930511Y-127744155D01*
X138844991Y-127584158D01*
X138832348Y-127542480D01*
X138792326Y-127410547D01*
X138779000Y-127275243D01*
X138779000Y-126724756D01*
X138792326Y-126589452D01*
X138844990Y-126415843D01*
X138930512Y-126255844D01*
X138968156Y-126209975D01*
X139045604Y-126115603D01*
X139171389Y-126012375D01*
X139185845Y-126000511D01*
X139345844Y-125914990D01*
X139519453Y-125862326D01*
X139700000Y-125844544D01*
X139880548Y-125862326D01*
X139880548Y-125862326D01*
G37*
G36*
X158259561Y-125852966D02*
G01*
X158292383Y-125862923D01*
X158322632Y-125879092D01*
X158349148Y-125900852D01*
X158370908Y-125927368D01*
X158387077Y-125957617D01*
X158397034Y-125990439D01*
X158401000Y-126030713D01*
X158401000Y-127969287D01*
X158397034Y-128009561D01*
X158387077Y-128042383D01*
X158370908Y-128072632D01*
X158349148Y-128099148D01*
X158322632Y-128120908D01*
X158292383Y-128137077D01*
X158259561Y-128147034D01*
X158219287Y-128151000D01*
X156740713Y-128151000D01*
X156700439Y-128147034D01*
X156667617Y-128137077D01*
X156637368Y-128120908D01*
X156610852Y-128099148D01*
X156589092Y-128072632D01*
X156572923Y-128042383D01*
X156562966Y-128009561D01*
X156559000Y-127969287D01*
X156559000Y-126030713D01*
X156562966Y-125990439D01*
X156572923Y-125957617D01*
X156589092Y-125927368D01*
X156610852Y-125900852D01*
X156637368Y-125879092D01*
X156667617Y-125862923D01*
X156700439Y-125852966D01*
X156740713Y-125849000D01*
X158219287Y-125849000D01*
X158259561Y-125852966D01*
X158259561Y-125852966D01*
G37*
G36*
X127779561Y-125852966D02*
G01*
X127812383Y-125862923D01*
X127842632Y-125879092D01*
X127869148Y-125900852D01*
X127890908Y-125927368D01*
X127907077Y-125957617D01*
X127917034Y-125990439D01*
X127921000Y-126030713D01*
X127921000Y-127969287D01*
X127917034Y-128009561D01*
X127907077Y-128042383D01*
X127890908Y-128072632D01*
X127869148Y-128099148D01*
X127842632Y-128120908D01*
X127812383Y-128137077D01*
X127779561Y-128147034D01*
X127739287Y-128151000D01*
X126260713Y-128151000D01*
X126220439Y-128147034D01*
X126187617Y-128137077D01*
X126157368Y-128120908D01*
X126130852Y-128099148D01*
X126109092Y-128072632D01*
X126092923Y-128042383D01*
X126082966Y-128009561D01*
X126079000Y-127969287D01*
X126079000Y-126030713D01*
X126082966Y-125990439D01*
X126092923Y-125957617D01*
X126109092Y-125927368D01*
X126130852Y-125900852D01*
X126157368Y-125879092D01*
X126187617Y-125862923D01*
X126220439Y-125852966D01*
X126260713Y-125849000D01*
X127739287Y-125849000D01*
X127779561Y-125852966D01*
X127779561Y-125852966D01*
G37*
G36*
X143019561Y-125852966D02*
G01*
X143052383Y-125862923D01*
X143082632Y-125879092D01*
X143109148Y-125900852D01*
X143130908Y-125927368D01*
X143147077Y-125957617D01*
X143157034Y-125990439D01*
X143161000Y-126030713D01*
X143161000Y-127969287D01*
X143157034Y-128009561D01*
X143147077Y-128042383D01*
X143130908Y-128072632D01*
X143109148Y-128099148D01*
X143082632Y-128120908D01*
X143052383Y-128137077D01*
X143019561Y-128147034D01*
X142979287Y-128151000D01*
X141500713Y-128151000D01*
X141460439Y-128147034D01*
X141427617Y-128137077D01*
X141397368Y-128120908D01*
X141370852Y-128099148D01*
X141349092Y-128072632D01*
X141332923Y-128042383D01*
X141322966Y-128009561D01*
X141319000Y-127969287D01*
X141319000Y-126030713D01*
X141322966Y-125990439D01*
X141332923Y-125957617D01*
X141349092Y-125927368D01*
X141370852Y-125900852D01*
X141397368Y-125879092D01*
X141427617Y-125862923D01*
X141460439Y-125852966D01*
X141500713Y-125849000D01*
X142979287Y-125849000D01*
X143019561Y-125852966D01*
X143019561Y-125852966D01*
G37*
G36*
X170959561Y-125852966D02*
G01*
X170992383Y-125862923D01*
X171022632Y-125879092D01*
X171049148Y-125900852D01*
X171070908Y-125927368D01*
X171087077Y-125957617D01*
X171097034Y-125990439D01*
X171101000Y-126030713D01*
X171101000Y-127969287D01*
X171097034Y-128009561D01*
X171087077Y-128042383D01*
X171070908Y-128072632D01*
X171049148Y-128099148D01*
X171022632Y-128120908D01*
X170992383Y-128137077D01*
X170959561Y-128147034D01*
X170919287Y-128151000D01*
X169440713Y-128151000D01*
X169400439Y-128147034D01*
X169367617Y-128137077D01*
X169337368Y-128120908D01*
X169310852Y-128099148D01*
X169289092Y-128072632D01*
X169272923Y-128042383D01*
X169262966Y-128009561D01*
X169259000Y-127969287D01*
X169259000Y-126030713D01*
X169262966Y-125990439D01*
X169272923Y-125957617D01*
X169289092Y-125927368D01*
X169310852Y-125900852D01*
X169337368Y-125879092D01*
X169367617Y-125862923D01*
X169400439Y-125852966D01*
X169440713Y-125849000D01*
X170919287Y-125849000D01*
X170959561Y-125852966D01*
X170959561Y-125852966D01*
G37*
G36*
X106846823Y-126161313D02*
G01*
X107007242Y-126209976D01*
X107139906Y-126280886D01*
X107155078Y-126288996D01*
X107284659Y-126395341D01*
X107391004Y-126524922D01*
X107391005Y-126524924D01*
X107470024Y-126672758D01*
X107518687Y-126833177D01*
X107535117Y-127000000D01*
X107518687Y-127166823D01*
X107470024Y-127327242D01*
X107425496Y-127410548D01*
X107391004Y-127475078D01*
X107284659Y-127604659D01*
X107155078Y-127711004D01*
X107155076Y-127711005D01*
X107007242Y-127790024D01*
X106846823Y-127838687D01*
X106721804Y-127851000D01*
X106638196Y-127851000D01*
X106513177Y-127838687D01*
X106352758Y-127790024D01*
X106204924Y-127711005D01*
X106204922Y-127711004D01*
X106075341Y-127604659D01*
X105968996Y-127475078D01*
X105934504Y-127410548D01*
X105889976Y-127327242D01*
X105841313Y-127166823D01*
X105824883Y-127000000D01*
X105841313Y-126833177D01*
X105889976Y-126672758D01*
X105968995Y-126524924D01*
X105968996Y-126524922D01*
X106075341Y-126395341D01*
X106204922Y-126288996D01*
X106220094Y-126280886D01*
X106352758Y-126209976D01*
X106513177Y-126161313D01*
X106638196Y-126149000D01*
X106721804Y-126149000D01*
X106846823Y-126161313D01*
X106846823Y-126161313D01*
G37*
G36*
X114548228Y-126181703D02*
G01*
X114703100Y-126245853D01*
X114842481Y-126338985D01*
X114961015Y-126457519D01*
X115054147Y-126596900D01*
X115118297Y-126751772D01*
X115151000Y-126916184D01*
X115151000Y-127083816D01*
X115118297Y-127248228D01*
X115054147Y-127403100D01*
X114961015Y-127542481D01*
X114842481Y-127661015D01*
X114703100Y-127754147D01*
X114548228Y-127818297D01*
X114383816Y-127851000D01*
X114216184Y-127851000D01*
X114051772Y-127818297D01*
X113896900Y-127754147D01*
X113757519Y-127661015D01*
X113638985Y-127542481D01*
X113545853Y-127403100D01*
X113481703Y-127248228D01*
X113449000Y-127083816D01*
X113449000Y-126916184D01*
X113481703Y-126751772D01*
X113545853Y-126596900D01*
X113638985Y-126457519D01*
X113757519Y-126338985D01*
X113896900Y-126245853D01*
X114051772Y-126181703D01*
X114216184Y-126149000D01*
X114383816Y-126149000D01*
X114548228Y-126181703D01*
X114548228Y-126181703D01*
G37*
G36*
X171698228Y-119831703D02*
G01*
X171853100Y-119895853D01*
X171992481Y-119988985D01*
X172111015Y-120107519D01*
X172204147Y-120246900D01*
X172268297Y-120401772D01*
X172301000Y-120566184D01*
X172301000Y-120733816D01*
X172268297Y-120898228D01*
X172204147Y-121053100D01*
X172111015Y-121192481D01*
X171992481Y-121311015D01*
X171853100Y-121404147D01*
X171698228Y-121468297D01*
X171533816Y-121501000D01*
X171366184Y-121501000D01*
X171201772Y-121468297D01*
X171046900Y-121404147D01*
X170907519Y-121311015D01*
X170788985Y-121192481D01*
X170695853Y-121053100D01*
X170631703Y-120898228D01*
X170599000Y-120733816D01*
X170599000Y-120566184D01*
X170631703Y-120401772D01*
X170695853Y-120246900D01*
X170788985Y-120107519D01*
X170907519Y-119988985D01*
X171046900Y-119895853D01*
X171201772Y-119831703D01*
X171366184Y-119799000D01*
X171533816Y-119799000D01*
X171698228Y-119831703D01*
X171698228Y-119831703D01*
G37*
G36*
X163996823Y-119811313D02*
G01*
X164157242Y-119859976D01*
X164224361Y-119895852D01*
X164305078Y-119938996D01*
X164434659Y-120045341D01*
X164541004Y-120174922D01*
X164541005Y-120174924D01*
X164620024Y-120322758D01*
X164668687Y-120483177D01*
X164685117Y-120650000D01*
X164668687Y-120816823D01*
X164620024Y-120977242D01*
X164556283Y-121096492D01*
X164541004Y-121125078D01*
X164434659Y-121254659D01*
X164305078Y-121361004D01*
X164305076Y-121361005D01*
X164157242Y-121440024D01*
X163996823Y-121488687D01*
X163871804Y-121501000D01*
X163788196Y-121501000D01*
X163663177Y-121488687D01*
X163502758Y-121440024D01*
X163354924Y-121361005D01*
X163354922Y-121361004D01*
X163225341Y-121254659D01*
X163118996Y-121125078D01*
X163103717Y-121096492D01*
X163039976Y-120977242D01*
X162991313Y-120816823D01*
X162974883Y-120650000D01*
X162991313Y-120483177D01*
X163039976Y-120322758D01*
X163118995Y-120174924D01*
X163118996Y-120174922D01*
X163225341Y-120045341D01*
X163354922Y-119938996D01*
X163435639Y-119895852D01*
X163502758Y-119859976D01*
X163663177Y-119811313D01*
X163788196Y-119799000D01*
X163871804Y-119799000D01*
X163996823Y-119811313D01*
X163996823Y-119811313D01*
G37*
G36*
X150108228Y-119831703D02*
G01*
X150263100Y-119895853D01*
X150402481Y-119988985D01*
X150521015Y-120107519D01*
X150614147Y-120246900D01*
X150678297Y-120401772D01*
X150711000Y-120566184D01*
X150711000Y-120733816D01*
X150678297Y-120898228D01*
X150614147Y-121053100D01*
X150521015Y-121192481D01*
X150402481Y-121311015D01*
X150263100Y-121404147D01*
X150108228Y-121468297D01*
X149943816Y-121501000D01*
X149776184Y-121501000D01*
X149611772Y-121468297D01*
X149456900Y-121404147D01*
X149317519Y-121311015D01*
X149198985Y-121192481D01*
X149105853Y-121053100D01*
X149041703Y-120898228D01*
X149009000Y-120733816D01*
X149009000Y-120566184D01*
X149041703Y-120401772D01*
X149105853Y-120246900D01*
X149198985Y-120107519D01*
X149317519Y-119988985D01*
X149456900Y-119895853D01*
X149611772Y-119831703D01*
X149776184Y-119799000D01*
X149943816Y-119799000D01*
X150108228Y-119831703D01*
X150108228Y-119831703D01*
G37*
G36*
X121397915Y-119857334D02*
G01*
X121506491Y-119890271D01*
X121506494Y-119890272D01*
X121542600Y-119909571D01*
X121606556Y-119943756D01*
X121694264Y-120015736D01*
X121766244Y-120103443D01*
X121800429Y-120167399D01*
X121819728Y-120203505D01*
X121819729Y-120203508D01*
X121852666Y-120312084D01*
X121861000Y-120396702D01*
X121861000Y-120903297D01*
X121852666Y-120987916D01*
X121820252Y-121094767D01*
X121819728Y-121096495D01*
X121816655Y-121102244D01*
X121766244Y-121196557D01*
X121694264Y-121284264D01*
X121606557Y-121356244D01*
X121542601Y-121390429D01*
X121506495Y-121409728D01*
X121506492Y-121409729D01*
X121397916Y-121442666D01*
X121285000Y-121453787D01*
X121172085Y-121442666D01*
X121063509Y-121409729D01*
X121063506Y-121409728D01*
X121027400Y-121390429D01*
X120963444Y-121356244D01*
X120875737Y-121284264D01*
X120803757Y-121196557D01*
X120781933Y-121155728D01*
X120760239Y-121115141D01*
X120746625Y-121094766D01*
X120729298Y-121077439D01*
X120708924Y-121063826D01*
X120686285Y-121054448D01*
X120662252Y-121049668D01*
X120637748Y-121049668D01*
X120613715Y-121054448D01*
X120591076Y-121063826D01*
X120570701Y-121077440D01*
X120553374Y-121094767D01*
X120539761Y-121115141D01*
X120496244Y-121196557D01*
X120424264Y-121284264D01*
X120336557Y-121356244D01*
X120272601Y-121390429D01*
X120236495Y-121409728D01*
X120236492Y-121409729D01*
X120127916Y-121442666D01*
X120015000Y-121453787D01*
X119902085Y-121442666D01*
X119793509Y-121409729D01*
X119793506Y-121409728D01*
X119757400Y-121390429D01*
X119693444Y-121356244D01*
X119605737Y-121284264D01*
X119542622Y-121207359D01*
X119525297Y-121190034D01*
X119504923Y-121176420D01*
X119482284Y-121167043D01*
X119458250Y-121162263D01*
X119433746Y-121162263D01*
X119409713Y-121167044D01*
X119387074Y-121176421D01*
X119366700Y-121190035D01*
X119349373Y-121207362D01*
X119335759Y-121227736D01*
X119326382Y-121250375D01*
X119321000Y-121286660D01*
X119321000Y-121451000D01*
X118169000Y-121451000D01*
X118169000Y-119849000D01*
X119321000Y-119849000D01*
X119321000Y-120013341D01*
X119323402Y-120037727D01*
X119330515Y-120061176D01*
X119342066Y-120082787D01*
X119357611Y-120101729D01*
X119376553Y-120117274D01*
X119398164Y-120128825D01*
X119421613Y-120135938D01*
X119445999Y-120138340D01*
X119470385Y-120135938D01*
X119493834Y-120128825D01*
X119515445Y-120117274D01*
X119534387Y-120101729D01*
X119542608Y-120092657D01*
X119605736Y-120015736D01*
X119693443Y-119943756D01*
X119757399Y-119909571D01*
X119793505Y-119890272D01*
X119793508Y-119890271D01*
X119902084Y-119857334D01*
X120015000Y-119846213D01*
X120127915Y-119857334D01*
X120236491Y-119890271D01*
X120236494Y-119890272D01*
X120272600Y-119909571D01*
X120336556Y-119943756D01*
X120424264Y-120015736D01*
X120496244Y-120103443D01*
X120534450Y-120174922D01*
X120539761Y-120184859D01*
X120553375Y-120205234D01*
X120570702Y-120222561D01*
X120591076Y-120236174D01*
X120613715Y-120245552D01*
X120637748Y-120250332D01*
X120662252Y-120250332D01*
X120686285Y-120245552D01*
X120708924Y-120236174D01*
X120729299Y-120222560D01*
X120746626Y-120205233D01*
X120760239Y-120184860D01*
X120803756Y-120103444D01*
X120875736Y-120015736D01*
X120963443Y-119943756D01*
X121027399Y-119909571D01*
X121063505Y-119890272D01*
X121063508Y-119890271D01*
X121172084Y-119857334D01*
X121285000Y-119846213D01*
X121397915Y-119857334D01*
X121397915Y-119857334D01*
G37*
G36*
X158608915Y-119603334D02*
G01*
X158717491Y-119636271D01*
X158717494Y-119636272D01*
X158753600Y-119655571D01*
X158817556Y-119689756D01*
X158905264Y-119761736D01*
X158977244Y-119849443D01*
X159002050Y-119895853D01*
X159030728Y-119949505D01*
X159030729Y-119949508D01*
X159063666Y-120058084D01*
X159072000Y-120142702D01*
X159072000Y-120649297D01*
X159063666Y-120733916D01*
X159031252Y-120840767D01*
X159030728Y-120842495D01*
X159020761Y-120861141D01*
X158977244Y-120942557D01*
X158905264Y-121030264D01*
X158817557Y-121102244D01*
X158753601Y-121136429D01*
X158717495Y-121155728D01*
X158717492Y-121155729D01*
X158608916Y-121188666D01*
X158496000Y-121199787D01*
X158383085Y-121188666D01*
X158274509Y-121155729D01*
X158274506Y-121155728D01*
X158238400Y-121136429D01*
X158174444Y-121102244D01*
X158086737Y-121030264D01*
X158014757Y-120942557D01*
X157971239Y-120861141D01*
X157957625Y-120840766D01*
X157940298Y-120823439D01*
X157919924Y-120809826D01*
X157897285Y-120800448D01*
X157873252Y-120795668D01*
X157848748Y-120795668D01*
X157824715Y-120800448D01*
X157802076Y-120809826D01*
X157781701Y-120823440D01*
X157764374Y-120840767D01*
X157750761Y-120861141D01*
X157707244Y-120942557D01*
X157635264Y-121030264D01*
X157547557Y-121102244D01*
X157483601Y-121136429D01*
X157447495Y-121155728D01*
X157447492Y-121155729D01*
X157338916Y-121188666D01*
X157226000Y-121199787D01*
X157113085Y-121188666D01*
X157004509Y-121155729D01*
X157004506Y-121155728D01*
X156968400Y-121136429D01*
X156904444Y-121102244D01*
X156816737Y-121030264D01*
X156753622Y-120953359D01*
X156736297Y-120936034D01*
X156715923Y-120922420D01*
X156693284Y-120913043D01*
X156669250Y-120908263D01*
X156644746Y-120908263D01*
X156620713Y-120913044D01*
X156598074Y-120922421D01*
X156577700Y-120936035D01*
X156560373Y-120953362D01*
X156546759Y-120973736D01*
X156537382Y-120996375D01*
X156532000Y-121032660D01*
X156532000Y-121197000D01*
X155380000Y-121197000D01*
X155380000Y-119595000D01*
X156532000Y-119595000D01*
X156532000Y-119759341D01*
X156534402Y-119783727D01*
X156541515Y-119807176D01*
X156553066Y-119828787D01*
X156568611Y-119847729D01*
X156587553Y-119863274D01*
X156609164Y-119874825D01*
X156632613Y-119881938D01*
X156656999Y-119884340D01*
X156681385Y-119881938D01*
X156704834Y-119874825D01*
X156726445Y-119863274D01*
X156745387Y-119847729D01*
X156753608Y-119838657D01*
X156816736Y-119761736D01*
X156904443Y-119689756D01*
X156968399Y-119655571D01*
X157004505Y-119636272D01*
X157004508Y-119636271D01*
X157113084Y-119603334D01*
X157226000Y-119592213D01*
X157338915Y-119603334D01*
X157447491Y-119636271D01*
X157447494Y-119636272D01*
X157483600Y-119655571D01*
X157547556Y-119689756D01*
X157635264Y-119761736D01*
X157707244Y-119849443D01*
X157732050Y-119895853D01*
X157750761Y-119930859D01*
X157764375Y-119951234D01*
X157781702Y-119968561D01*
X157802076Y-119982174D01*
X157824715Y-119991552D01*
X157848748Y-119996332D01*
X157873252Y-119996332D01*
X157897285Y-119991552D01*
X157919924Y-119982174D01*
X157940299Y-119968560D01*
X157957626Y-119951233D01*
X157971239Y-119930860D01*
X158014756Y-119849444D01*
X158086736Y-119761736D01*
X158174443Y-119689756D01*
X158238399Y-119655571D01*
X158274505Y-119636272D01*
X158274508Y-119636271D01*
X158383084Y-119603334D01*
X158496000Y-119592213D01*
X158608915Y-119603334D01*
X158608915Y-119603334D01*
G37*
G36*
X110738228Y-118521703D02*
G01*
X110893100Y-118585853D01*
X111032481Y-118678985D01*
X111151015Y-118797519D01*
X111244147Y-118936900D01*
X111308297Y-119091772D01*
X111341000Y-119256184D01*
X111341000Y-119423816D01*
X111308297Y-119588228D01*
X111244147Y-119743100D01*
X111151015Y-119882481D01*
X111032481Y-120001015D01*
X110893100Y-120094147D01*
X110738228Y-120158297D01*
X110573816Y-120191000D01*
X110406184Y-120191000D01*
X110241772Y-120158297D01*
X110086900Y-120094147D01*
X109947519Y-120001015D01*
X109828985Y-119882481D01*
X109735853Y-119743100D01*
X109671703Y-119588228D01*
X109639000Y-119423816D01*
X109639000Y-119256184D01*
X109671703Y-119091772D01*
X109735853Y-118936900D01*
X109828985Y-118797519D01*
X109947519Y-118678985D01*
X110086900Y-118585853D01*
X110241772Y-118521703D01*
X110406184Y-118489000D01*
X110573816Y-118489000D01*
X110738228Y-118521703D01*
X110738228Y-118521703D01*
G37*
G36*
X101848228Y-118521703D02*
G01*
X102003100Y-118585853D01*
X102142481Y-118678985D01*
X102261015Y-118797519D01*
X102354147Y-118936900D01*
X102418297Y-119091772D01*
X102451000Y-119256184D01*
X102451000Y-119423816D01*
X102418297Y-119588228D01*
X102354147Y-119743100D01*
X102261015Y-119882481D01*
X102142481Y-120001015D01*
X102003100Y-120094147D01*
X101848228Y-120158297D01*
X101683816Y-120191000D01*
X101516184Y-120191000D01*
X101351772Y-120158297D01*
X101196900Y-120094147D01*
X101057519Y-120001015D01*
X100938985Y-119882481D01*
X100845853Y-119743100D01*
X100781703Y-119588228D01*
X100749000Y-119423816D01*
X100749000Y-119256184D01*
X100781703Y-119091772D01*
X100845853Y-118936900D01*
X100938985Y-118797519D01*
X101057519Y-118678985D01*
X101196900Y-118585853D01*
X101351772Y-118521703D01*
X101516184Y-118489000D01*
X101683816Y-118489000D01*
X101848228Y-118521703D01*
X101848228Y-118521703D01*
G37*
G36*
X111341000Y-117691000D02*
G01*
X109639000Y-117691000D01*
X109639000Y-115989000D01*
X111341000Y-115989000D01*
X111341000Y-117691000D01*
X111341000Y-117691000D01*
G37*
G36*
X102451000Y-117691000D02*
G01*
X100749000Y-117691000D01*
X100749000Y-115989000D01*
X102451000Y-115989000D01*
X102451000Y-117691000D01*
X102451000Y-117691000D01*
G37*
G36*
X150026823Y-112191313D02*
G01*
X150187242Y-112239976D01*
X150319906Y-112310886D01*
X150335078Y-112318996D01*
X150464659Y-112425341D01*
X150571004Y-112554922D01*
X150571005Y-112554924D01*
X150650024Y-112702758D01*
X150698687Y-112863177D01*
X150715117Y-113030000D01*
X150698687Y-113196823D01*
X150650024Y-113357242D01*
X150579114Y-113489906D01*
X150571004Y-113505078D01*
X150464659Y-113634659D01*
X150335078Y-113741004D01*
X150335076Y-113741005D01*
X150187242Y-113820024D01*
X150026823Y-113868687D01*
X149901804Y-113881000D01*
X149818196Y-113881000D01*
X149693177Y-113868687D01*
X149532758Y-113820024D01*
X149384924Y-113741005D01*
X149384922Y-113741004D01*
X149255341Y-113634659D01*
X149148996Y-113505078D01*
X149140886Y-113489906D01*
X149069976Y-113357242D01*
X149021313Y-113196823D01*
X149004883Y-113030000D01*
X149021313Y-112863177D01*
X149069976Y-112702758D01*
X149148995Y-112554924D01*
X149148996Y-112554922D01*
X149255341Y-112425341D01*
X149384922Y-112318996D01*
X149400094Y-112310886D01*
X149532758Y-112239976D01*
X149693177Y-112191313D01*
X149818196Y-112179000D01*
X149901804Y-112179000D01*
X150026823Y-112191313D01*
X150026823Y-112191313D01*
G37*
G36*
X119525936Y-110761340D02*
G01*
X119624220Y-110771020D01*
X119813381Y-110828401D01*
X119987712Y-110921583D01*
X120140515Y-111046985D01*
X120265917Y-111199788D01*
X120359099Y-111374119D01*
X120416480Y-111563280D01*
X120435855Y-111760000D01*
X120416480Y-111956720D01*
X120359099Y-112145881D01*
X120265917Y-112320212D01*
X120140515Y-112473015D01*
X119987712Y-112598417D01*
X119813381Y-112691599D01*
X119624220Y-112748980D01*
X119525936Y-112758660D01*
X119476795Y-112763500D01*
X119283205Y-112763500D01*
X119234064Y-112758660D01*
X119135780Y-112748980D01*
X118946619Y-112691599D01*
X118772288Y-112598417D01*
X118619485Y-112473015D01*
X118494083Y-112320212D01*
X118400901Y-112145881D01*
X118343520Y-111956720D01*
X118324145Y-111760000D01*
X118343520Y-111563280D01*
X118400901Y-111374119D01*
X118494083Y-111199788D01*
X118619485Y-111046985D01*
X118772288Y-110921583D01*
X118946619Y-110828401D01*
X119135780Y-110771020D01*
X119234064Y-110761340D01*
X119283205Y-110756500D01*
X119476795Y-110756500D01*
X119525936Y-110761340D01*
X119525936Y-110761340D01*
G37*
G36*
X102609561Y-110842966D02*
G01*
X102642383Y-110852923D01*
X102672632Y-110869092D01*
X102699148Y-110890852D01*
X102720908Y-110917368D01*
X102737077Y-110947617D01*
X102747034Y-110980439D01*
X102751000Y-111020713D01*
X102751000Y-112499287D01*
X102747034Y-112539561D01*
X102737077Y-112572383D01*
X102720908Y-112602632D01*
X102699148Y-112629148D01*
X102672632Y-112650908D01*
X102642383Y-112667077D01*
X102609561Y-112677034D01*
X102569287Y-112681000D01*
X100630713Y-112681000D01*
X100590439Y-112677034D01*
X100557617Y-112667077D01*
X100527368Y-112650908D01*
X100500852Y-112629148D01*
X100479092Y-112602632D01*
X100462923Y-112572383D01*
X100452966Y-112539561D01*
X100449000Y-112499287D01*
X100449000Y-111020713D01*
X100452966Y-110980439D01*
X100462923Y-110947617D01*
X100479092Y-110917368D01*
X100500852Y-110890852D01*
X100527368Y-110869092D01*
X100557617Y-110852923D01*
X100590439Y-110842966D01*
X100630713Y-110839000D01*
X102569287Y-110839000D01*
X102609561Y-110842966D01*
X102609561Y-110842966D01*
G37*
G36*
X129788228Y-110941703D02*
G01*
X129943100Y-111005853D01*
X130082481Y-111098985D01*
X130201015Y-111217519D01*
X130294147Y-111356900D01*
X130358297Y-111511772D01*
X130391000Y-111676184D01*
X130391000Y-111843816D01*
X130358297Y-112008228D01*
X130294147Y-112163100D01*
X130201015Y-112302481D01*
X130082481Y-112421015D01*
X129943100Y-112514147D01*
X129788228Y-112578297D01*
X129623816Y-112611000D01*
X129456184Y-112611000D01*
X129291772Y-112578297D01*
X129136900Y-112514147D01*
X128997519Y-112421015D01*
X128878985Y-112302481D01*
X128785853Y-112163100D01*
X128721703Y-112008228D01*
X128689000Y-111843816D01*
X128689000Y-111676184D01*
X128721703Y-111511772D01*
X128785853Y-111356900D01*
X128878985Y-111217519D01*
X128997519Y-111098985D01*
X129136900Y-111005853D01*
X129291772Y-110941703D01*
X129456184Y-110909000D01*
X129623816Y-110909000D01*
X129788228Y-110941703D01*
X129788228Y-110941703D01*
G37*
G36*
X110738228Y-110901703D02*
G01*
X110893100Y-110965853D01*
X111032481Y-111058985D01*
X111151015Y-111177519D01*
X111244147Y-111316900D01*
X111308297Y-111471772D01*
X111341000Y-111636184D01*
X111341000Y-111803816D01*
X111308297Y-111968228D01*
X111244147Y-112123100D01*
X111151015Y-112262481D01*
X111032481Y-112381015D01*
X110893100Y-112474147D01*
X110738228Y-112538297D01*
X110573816Y-112571000D01*
X110406184Y-112571000D01*
X110241772Y-112538297D01*
X110086900Y-112474147D01*
X109947519Y-112381015D01*
X109828985Y-112262481D01*
X109735853Y-112123100D01*
X109671703Y-111968228D01*
X109639000Y-111803816D01*
X109639000Y-111636184D01*
X109671703Y-111471772D01*
X109735853Y-111316900D01*
X109828985Y-111177519D01*
X109947519Y-111058985D01*
X110086900Y-110965853D01*
X110241772Y-110901703D01*
X110406184Y-110869000D01*
X110573816Y-110869000D01*
X110738228Y-110901703D01*
X110738228Y-110901703D01*
G37*
G36*
X119511011Y-108219870D02*
G01*
X119624220Y-108231020D01*
X119813381Y-108288401D01*
X119987712Y-108381583D01*
X120140515Y-108506985D01*
X120265917Y-108659788D01*
X120359099Y-108834119D01*
X120416480Y-109023280D01*
X120435855Y-109220000D01*
X120416480Y-109416720D01*
X120359099Y-109605881D01*
X120265917Y-109780212D01*
X120140515Y-109933015D01*
X119987712Y-110058417D01*
X119813381Y-110151599D01*
X119624220Y-110208980D01*
X119525936Y-110218660D01*
X119476795Y-110223500D01*
X119283205Y-110223500D01*
X119234064Y-110218660D01*
X119135780Y-110208980D01*
X118946619Y-110151599D01*
X118772288Y-110058417D01*
X118619485Y-109933015D01*
X118494083Y-109780212D01*
X118400901Y-109605881D01*
X118343520Y-109416720D01*
X118324145Y-109220000D01*
X118343520Y-109023280D01*
X118400901Y-108834119D01*
X118494083Y-108659788D01*
X118619485Y-108506985D01*
X118772288Y-108381583D01*
X118946619Y-108288401D01*
X119135780Y-108231020D01*
X119248989Y-108219870D01*
X119283205Y-108216500D01*
X119476795Y-108216500D01*
X119511011Y-108219870D01*
X119511011Y-108219870D01*
G37*
G36*
X101920345Y-108303442D02*
G01*
X102010548Y-108312326D01*
X102184157Y-108364990D01*
X102344156Y-108450511D01*
X102364518Y-108467222D01*
X102484397Y-108565603D01*
X102561692Y-108659789D01*
X102599489Y-108705844D01*
X102658849Y-108816900D01*
X102680232Y-108856903D01*
X102685010Y-108865843D01*
X102737674Y-109039452D01*
X102755456Y-109220000D01*
X102737674Y-109400548D01*
X102685010Y-109574157D01*
X102599489Y-109734156D01*
X102576244Y-109762480D01*
X102484397Y-109874397D01*
X102387729Y-109953729D01*
X102344156Y-109989489D01*
X102184157Y-110075010D01*
X102010548Y-110127674D01*
X101920345Y-110136558D01*
X101875245Y-110141000D01*
X101324755Y-110141000D01*
X101279655Y-110136558D01*
X101189452Y-110127674D01*
X101015843Y-110075010D01*
X100855844Y-109989489D01*
X100812271Y-109953729D01*
X100715603Y-109874397D01*
X100623756Y-109762480D01*
X100600511Y-109734156D01*
X100514990Y-109574157D01*
X100462326Y-109400548D01*
X100444544Y-109220000D01*
X100462326Y-109039452D01*
X100514990Y-108865843D01*
X100519769Y-108856903D01*
X100541151Y-108816900D01*
X100600511Y-108705844D01*
X100638308Y-108659789D01*
X100715603Y-108565603D01*
X100835482Y-108467222D01*
X100855844Y-108450511D01*
X101015843Y-108364990D01*
X101189452Y-108312326D01*
X101279655Y-108303442D01*
X101324755Y-108299000D01*
X101875245Y-108299000D01*
X101920345Y-108303442D01*
X101920345Y-108303442D01*
G37*
G36*
X167750443Y-108325519D02*
G01*
X167816627Y-108332037D01*
X167986466Y-108383557D01*
X168142991Y-108467222D01*
X168172176Y-108491174D01*
X168280186Y-108579814D01*
X168360369Y-108677519D01*
X168392778Y-108717009D01*
X168392779Y-108717011D01*
X168467554Y-108856903D01*
X168476443Y-108873534D01*
X168527963Y-109043373D01*
X168545359Y-109220000D01*
X168527963Y-109396627D01*
X168476443Y-109566466D01*
X168392778Y-109722991D01*
X168383615Y-109734156D01*
X168280186Y-109860186D01*
X168191442Y-109933015D01*
X168142991Y-109972778D01*
X167986466Y-110056443D01*
X167816627Y-110107963D01*
X167750443Y-110114481D01*
X167684260Y-110121000D01*
X167595740Y-110121000D01*
X167529557Y-110114481D01*
X167463373Y-110107963D01*
X167293534Y-110056443D01*
X167137009Y-109972778D01*
X167088558Y-109933015D01*
X166999814Y-109860186D01*
X166896385Y-109734156D01*
X166887222Y-109722991D01*
X166803557Y-109566466D01*
X166752037Y-109396627D01*
X166734641Y-109220000D01*
X166752037Y-109043373D01*
X166803557Y-108873534D01*
X166812447Y-108856903D01*
X166887221Y-108717011D01*
X166887222Y-108717009D01*
X166919631Y-108677519D01*
X166999814Y-108579814D01*
X167107824Y-108491174D01*
X167137009Y-108467222D01*
X167293534Y-108383557D01*
X167463373Y-108332037D01*
X167529557Y-108325519D01*
X167595740Y-108319000D01*
X167684260Y-108319000D01*
X167750443Y-108325519D01*
X167750443Y-108325519D01*
G37*
G36*
X165210443Y-108325519D02*
G01*
X165276627Y-108332037D01*
X165446466Y-108383557D01*
X165602991Y-108467222D01*
X165632176Y-108491174D01*
X165740186Y-108579814D01*
X165820369Y-108677519D01*
X165852778Y-108717009D01*
X165852779Y-108717011D01*
X165927554Y-108856903D01*
X165936443Y-108873534D01*
X165987963Y-109043373D01*
X166005359Y-109220000D01*
X165987963Y-109396627D01*
X165936443Y-109566466D01*
X165852778Y-109722991D01*
X165843615Y-109734156D01*
X165740186Y-109860186D01*
X165651442Y-109933015D01*
X165602991Y-109972778D01*
X165446466Y-110056443D01*
X165276627Y-110107963D01*
X165210443Y-110114481D01*
X165144260Y-110121000D01*
X165055740Y-110121000D01*
X164989557Y-110114481D01*
X164923373Y-110107963D01*
X164753534Y-110056443D01*
X164597009Y-109972778D01*
X164548558Y-109933015D01*
X164459814Y-109860186D01*
X164356385Y-109734156D01*
X164347222Y-109722991D01*
X164263557Y-109566466D01*
X164212037Y-109396627D01*
X164194641Y-109220000D01*
X164212037Y-109043373D01*
X164263557Y-108873534D01*
X164272447Y-108856903D01*
X164347221Y-108717011D01*
X164347222Y-108717009D01*
X164379631Y-108677519D01*
X164459814Y-108579814D01*
X164567824Y-108491174D01*
X164597009Y-108467222D01*
X164753534Y-108383557D01*
X164923373Y-108332037D01*
X164989557Y-108325519D01*
X165055740Y-108319000D01*
X165144260Y-108319000D01*
X165210443Y-108325519D01*
X165210443Y-108325519D01*
G37*
G36*
X163461000Y-110121000D02*
G01*
X161659000Y-110121000D01*
X161659000Y-108319000D01*
X163461000Y-108319000D01*
X163461000Y-110121000D01*
X163461000Y-110121000D01*
G37*
G36*
X129788228Y-108441703D02*
G01*
X129943100Y-108505853D01*
X130082481Y-108598985D01*
X130201015Y-108717519D01*
X130294147Y-108856900D01*
X130358297Y-109011772D01*
X130391000Y-109176184D01*
X130391000Y-109343816D01*
X130358297Y-109508228D01*
X130294147Y-109663100D01*
X130201015Y-109802481D01*
X130082481Y-109921015D01*
X129943100Y-110014147D01*
X129788228Y-110078297D01*
X129623816Y-110111000D01*
X129456184Y-110111000D01*
X129291772Y-110078297D01*
X129136900Y-110014147D01*
X128997519Y-109921015D01*
X128878985Y-109802481D01*
X128785853Y-109663100D01*
X128721703Y-109508228D01*
X128689000Y-109343816D01*
X128689000Y-109176184D01*
X128721703Y-109011772D01*
X128785853Y-108856900D01*
X128878985Y-108717519D01*
X128997519Y-108598985D01*
X129136900Y-108505853D01*
X129291772Y-108441703D01*
X129456184Y-108409000D01*
X129623816Y-108409000D01*
X129788228Y-108441703D01*
X129788228Y-108441703D01*
G37*
G36*
X110738228Y-108401703D02*
G01*
X110893100Y-108465853D01*
X111032481Y-108558985D01*
X111151015Y-108677519D01*
X111244147Y-108816900D01*
X111308297Y-108971772D01*
X111341000Y-109136184D01*
X111341000Y-109303816D01*
X111308297Y-109468228D01*
X111244147Y-109623100D01*
X111151015Y-109762481D01*
X111032481Y-109881015D01*
X110893100Y-109974147D01*
X110738228Y-110038297D01*
X110573816Y-110071000D01*
X110406184Y-110071000D01*
X110241772Y-110038297D01*
X110086900Y-109974147D01*
X109947519Y-109881015D01*
X109828985Y-109762481D01*
X109735853Y-109623100D01*
X109671703Y-109468228D01*
X109639000Y-109303816D01*
X109639000Y-109136184D01*
X109671703Y-108971772D01*
X109735853Y-108816900D01*
X109828985Y-108677519D01*
X109947519Y-108558985D01*
X110086900Y-108465853D01*
X110241772Y-108401703D01*
X110406184Y-108369000D01*
X110573816Y-108369000D01*
X110738228Y-108401703D01*
X110738228Y-108401703D01*
G37*
G36*
X143598675Y-108223466D02*
G01*
X143636368Y-108234900D01*
X143671104Y-108253467D01*
X143701549Y-108278453D01*
X143726535Y-108308898D01*
X143745102Y-108343634D01*
X143756536Y-108381327D01*
X143761001Y-108426662D01*
X143761001Y-109513340D01*
X143756536Y-109558675D01*
X143745102Y-109596368D01*
X143726535Y-109631104D01*
X143701549Y-109661549D01*
X143671104Y-109686535D01*
X143636368Y-109705102D01*
X143598675Y-109716536D01*
X143553340Y-109721001D01*
X142716662Y-109721001D01*
X142671327Y-109716536D01*
X142633634Y-109705102D01*
X142598898Y-109686535D01*
X142568453Y-109661549D01*
X142543467Y-109631104D01*
X142524900Y-109596368D01*
X142513466Y-109558675D01*
X142509001Y-109513340D01*
X142509001Y-108426662D01*
X142513466Y-108381327D01*
X142524900Y-108343634D01*
X142543467Y-108308898D01*
X142568453Y-108278453D01*
X142598898Y-108253467D01*
X142633634Y-108234900D01*
X142671327Y-108223466D01*
X142716662Y-108219001D01*
X143553340Y-108219001D01*
X143598675Y-108223466D01*
X143598675Y-108223466D01*
G37*
G36*
X145648675Y-108223466D02*
G01*
X145686368Y-108234900D01*
X145721104Y-108253467D01*
X145751549Y-108278453D01*
X145776535Y-108308898D01*
X145795102Y-108343634D01*
X145806536Y-108381327D01*
X145811001Y-108426662D01*
X145811001Y-109513340D01*
X145806536Y-109558675D01*
X145795102Y-109596368D01*
X145776535Y-109631104D01*
X145751549Y-109661549D01*
X145721104Y-109686535D01*
X145686368Y-109705102D01*
X145648675Y-109716536D01*
X145603340Y-109721001D01*
X144766662Y-109721001D01*
X144721327Y-109716536D01*
X144683634Y-109705102D01*
X144648898Y-109686535D01*
X144618453Y-109661549D01*
X144593467Y-109631104D01*
X144574900Y-109596368D01*
X144563466Y-109558675D01*
X144559001Y-109513340D01*
X144559001Y-108426662D01*
X144563466Y-108381327D01*
X144574900Y-108343634D01*
X144593467Y-108308898D01*
X144618453Y-108278453D01*
X144648898Y-108253467D01*
X144683634Y-108234900D01*
X144721327Y-108223466D01*
X144766662Y-108219001D01*
X145603340Y-108219001D01*
X145648675Y-108223466D01*
X145648675Y-108223466D01*
G37*
G36*
X150393675Y-108178466D02*
G01*
X150431368Y-108189900D01*
X150466104Y-108208467D01*
X150496549Y-108233453D01*
X150521535Y-108263898D01*
X150540102Y-108298634D01*
X150551536Y-108336327D01*
X150556001Y-108381662D01*
X150556001Y-109468340D01*
X150551536Y-109513675D01*
X150540102Y-109551368D01*
X150521535Y-109586104D01*
X150496549Y-109616549D01*
X150466104Y-109641535D01*
X150431368Y-109660102D01*
X150393675Y-109671536D01*
X150348340Y-109676001D01*
X149511662Y-109676001D01*
X149466327Y-109671536D01*
X149428634Y-109660102D01*
X149393898Y-109641535D01*
X149363453Y-109616549D01*
X149338467Y-109586104D01*
X149319900Y-109551368D01*
X149308466Y-109513675D01*
X149304001Y-109468340D01*
X149304001Y-108381662D01*
X149308466Y-108336327D01*
X149319900Y-108298634D01*
X149338467Y-108263898D01*
X149363453Y-108233453D01*
X149393898Y-108208467D01*
X149428634Y-108189900D01*
X149466327Y-108178466D01*
X149511662Y-108174001D01*
X150348340Y-108174001D01*
X150393675Y-108178466D01*
X150393675Y-108178466D01*
G37*
G36*
X148343675Y-108178466D02*
G01*
X148381368Y-108189900D01*
X148416104Y-108208467D01*
X148446549Y-108233453D01*
X148471535Y-108263898D01*
X148490102Y-108298634D01*
X148501536Y-108336327D01*
X148506001Y-108381662D01*
X148506001Y-109468340D01*
X148501536Y-109513675D01*
X148490102Y-109551368D01*
X148471535Y-109586104D01*
X148446549Y-109616549D01*
X148416104Y-109641535D01*
X148381368Y-109660102D01*
X148343675Y-109671536D01*
X148298340Y-109676001D01*
X147461662Y-109676001D01*
X147416327Y-109671536D01*
X147378634Y-109660102D01*
X147343898Y-109641535D01*
X147313453Y-109616549D01*
X147288467Y-109586104D01*
X147269900Y-109551368D01*
X147258466Y-109513675D01*
X147254001Y-109468340D01*
X147254001Y-108381662D01*
X147258466Y-108336327D01*
X147269900Y-108298634D01*
X147288467Y-108263898D01*
X147313453Y-108233453D01*
X147343898Y-108208467D01*
X147378634Y-108189900D01*
X147416327Y-108178466D01*
X147461662Y-108174001D01*
X148298340Y-108174001D01*
X148343675Y-108178466D01*
X148343675Y-108178466D01*
G37*
G36*
X120431000Y-107683500D02*
G01*
X118329000Y-107683500D01*
X118329000Y-105676500D01*
X120431000Y-105676500D01*
X120431000Y-107683500D01*
X120431000Y-107683500D01*
G37*
G36*
X162670443Y-105785519D02*
G01*
X162736627Y-105792037D01*
X162906466Y-105843557D01*
X163062991Y-105927222D01*
X163098729Y-105956552D01*
X163200186Y-106039814D01*
X163283448Y-106141271D01*
X163312778Y-106177009D01*
X163396443Y-106333534D01*
X163447963Y-106503373D01*
X163465359Y-106680000D01*
X163447963Y-106856627D01*
X163396443Y-107026466D01*
X163312778Y-107182991D01*
X163283448Y-107218729D01*
X163200186Y-107320186D01*
X163098729Y-107403448D01*
X163062991Y-107432778D01*
X162906466Y-107516443D01*
X162736627Y-107567963D01*
X162670443Y-107574481D01*
X162604260Y-107581000D01*
X162515740Y-107581000D01*
X162449557Y-107574481D01*
X162383373Y-107567963D01*
X162213534Y-107516443D01*
X162057009Y-107432778D01*
X162021271Y-107403448D01*
X161919814Y-107320186D01*
X161836552Y-107218729D01*
X161807222Y-107182991D01*
X161723557Y-107026466D01*
X161672037Y-106856627D01*
X161654641Y-106680000D01*
X161672037Y-106503373D01*
X161723557Y-106333534D01*
X161807222Y-106177009D01*
X161836552Y-106141271D01*
X161919814Y-106039814D01*
X162021271Y-105956552D01*
X162057009Y-105927222D01*
X162213534Y-105843557D01*
X162383373Y-105792037D01*
X162449557Y-105785519D01*
X162515740Y-105779000D01*
X162604260Y-105779000D01*
X162670443Y-105785519D01*
X162670443Y-105785519D01*
G37*
G36*
X165210443Y-105785519D02*
G01*
X165276627Y-105792037D01*
X165446466Y-105843557D01*
X165602991Y-105927222D01*
X165638729Y-105956552D01*
X165740186Y-106039814D01*
X165823448Y-106141271D01*
X165852778Y-106177009D01*
X165936443Y-106333534D01*
X165987963Y-106503373D01*
X166005359Y-106680000D01*
X165987963Y-106856627D01*
X165936443Y-107026466D01*
X165852778Y-107182991D01*
X165823448Y-107218729D01*
X165740186Y-107320186D01*
X165638729Y-107403448D01*
X165602991Y-107432778D01*
X165446466Y-107516443D01*
X165276627Y-107567963D01*
X165210443Y-107574481D01*
X165144260Y-107581000D01*
X165055740Y-107581000D01*
X164989557Y-107574481D01*
X164923373Y-107567963D01*
X164753534Y-107516443D01*
X164597009Y-107432778D01*
X164561271Y-107403448D01*
X164459814Y-107320186D01*
X164376552Y-107218729D01*
X164347222Y-107182991D01*
X164263557Y-107026466D01*
X164212037Y-106856627D01*
X164194641Y-106680000D01*
X164212037Y-106503373D01*
X164263557Y-106333534D01*
X164347222Y-106177009D01*
X164376552Y-106141271D01*
X164459814Y-106039814D01*
X164561271Y-105956552D01*
X164597009Y-105927222D01*
X164753534Y-105843557D01*
X164923373Y-105792037D01*
X164989557Y-105785519D01*
X165055740Y-105779000D01*
X165144260Y-105779000D01*
X165210443Y-105785519D01*
X165210443Y-105785519D01*
G37*
G36*
X167750443Y-105785519D02*
G01*
X167816627Y-105792037D01*
X167986466Y-105843557D01*
X168142991Y-105927222D01*
X168178729Y-105956552D01*
X168280186Y-106039814D01*
X168363448Y-106141271D01*
X168392778Y-106177009D01*
X168476443Y-106333534D01*
X168527963Y-106503373D01*
X168545359Y-106680000D01*
X168527963Y-106856627D01*
X168476443Y-107026466D01*
X168392778Y-107182991D01*
X168363448Y-107218729D01*
X168280186Y-107320186D01*
X168178729Y-107403448D01*
X168142991Y-107432778D01*
X167986466Y-107516443D01*
X167816627Y-107567963D01*
X167750443Y-107574481D01*
X167684260Y-107581000D01*
X167595740Y-107581000D01*
X167529557Y-107574481D01*
X167463373Y-107567963D01*
X167293534Y-107516443D01*
X167137009Y-107432778D01*
X167101271Y-107403448D01*
X166999814Y-107320186D01*
X166916552Y-107218729D01*
X166887222Y-107182991D01*
X166803557Y-107026466D01*
X166752037Y-106856627D01*
X166734641Y-106680000D01*
X166752037Y-106503373D01*
X166803557Y-106333534D01*
X166887222Y-106177009D01*
X166916552Y-106141271D01*
X166999814Y-106039814D01*
X167101271Y-105956552D01*
X167137009Y-105927222D01*
X167293534Y-105843557D01*
X167463373Y-105792037D01*
X167529557Y-105785519D01*
X167595740Y-105779000D01*
X167684260Y-105779000D01*
X167750443Y-105785519D01*
X167750443Y-105785519D01*
G37*
G36*
X102609561Y-103222966D02*
G01*
X102642383Y-103232923D01*
X102672632Y-103249092D01*
X102699148Y-103270852D01*
X102720908Y-103297368D01*
X102737077Y-103327617D01*
X102747034Y-103360439D01*
X102751000Y-103400713D01*
X102751000Y-104879287D01*
X102747034Y-104919561D01*
X102737077Y-104952383D01*
X102720908Y-104982632D01*
X102699148Y-105009148D01*
X102672632Y-105030908D01*
X102642383Y-105047077D01*
X102609561Y-105057034D01*
X102569287Y-105061000D01*
X100630713Y-105061000D01*
X100590439Y-105057034D01*
X100557617Y-105047077D01*
X100527368Y-105030908D01*
X100500852Y-105009148D01*
X100479092Y-104982632D01*
X100462923Y-104952383D01*
X100452966Y-104919561D01*
X100449000Y-104879287D01*
X100449000Y-103400713D01*
X100452966Y-103360439D01*
X100462923Y-103327617D01*
X100479092Y-103297368D01*
X100500852Y-103270852D01*
X100527368Y-103249092D01*
X100557617Y-103232923D01*
X100590439Y-103222966D01*
X100630713Y-103219000D01*
X102569287Y-103219000D01*
X102609561Y-103222966D01*
X102609561Y-103222966D01*
G37*
G36*
X108751000Y-102176000D02*
G01*
X108586660Y-102176000D01*
X108562274Y-102178402D01*
X108538825Y-102185515D01*
X108517214Y-102197066D01*
X108498272Y-102212611D01*
X108482727Y-102231553D01*
X108471176Y-102253164D01*
X108464063Y-102276613D01*
X108461661Y-102300999D01*
X108464063Y-102325385D01*
X108471176Y-102348834D01*
X108482727Y-102370445D01*
X108498272Y-102389387D01*
X108507345Y-102397609D01*
X108584264Y-102460736D01*
X108656244Y-102548443D01*
X108690429Y-102612399D01*
X108709728Y-102648505D01*
X108709729Y-102648508D01*
X108742666Y-102757084D01*
X108753787Y-102870000D01*
X108742666Y-102982916D01*
X108709729Y-103091492D01*
X108709728Y-103091495D01*
X108690429Y-103127601D01*
X108656244Y-103191557D01*
X108584264Y-103279264D01*
X108496557Y-103351244D01*
X108415141Y-103394761D01*
X108394766Y-103408375D01*
X108377439Y-103425702D01*
X108363826Y-103446076D01*
X108354448Y-103468715D01*
X108349668Y-103492748D01*
X108349668Y-103517252D01*
X108354448Y-103541285D01*
X108363826Y-103563924D01*
X108377440Y-103584299D01*
X108394767Y-103601626D01*
X108415141Y-103615239D01*
X108496557Y-103658756D01*
X108584264Y-103730736D01*
X108656244Y-103818443D01*
X108690429Y-103882399D01*
X108709728Y-103918505D01*
X108709729Y-103918508D01*
X108742666Y-104027084D01*
X108753787Y-104140000D01*
X108742666Y-104252916D01*
X108709729Y-104361492D01*
X108709728Y-104361495D01*
X108690429Y-104397601D01*
X108656244Y-104461557D01*
X108584264Y-104549264D01*
X108496557Y-104621244D01*
X108432601Y-104655429D01*
X108396495Y-104674728D01*
X108396492Y-104674729D01*
X108287916Y-104707666D01*
X108203298Y-104716000D01*
X107696702Y-104716000D01*
X107612084Y-104707666D01*
X107503508Y-104674729D01*
X107503505Y-104674728D01*
X107467399Y-104655429D01*
X107403443Y-104621244D01*
X107315736Y-104549264D01*
X107243756Y-104461557D01*
X107209571Y-104397601D01*
X107190272Y-104361495D01*
X107190271Y-104361492D01*
X107157334Y-104252916D01*
X107146213Y-104140000D01*
X107157334Y-104027084D01*
X107190271Y-103918508D01*
X107190272Y-103918505D01*
X107209571Y-103882399D01*
X107243756Y-103818443D01*
X107315736Y-103730736D01*
X107403443Y-103658756D01*
X107484859Y-103615239D01*
X107505234Y-103601625D01*
X107522561Y-103584298D01*
X107536174Y-103563924D01*
X107545552Y-103541285D01*
X107550332Y-103517252D01*
X107550332Y-103492748D01*
X107545552Y-103468715D01*
X107536174Y-103446076D01*
X107522560Y-103425701D01*
X107505233Y-103408374D01*
X107484859Y-103394761D01*
X107403443Y-103351244D01*
X107315736Y-103279264D01*
X107243756Y-103191557D01*
X107209571Y-103127601D01*
X107190272Y-103091495D01*
X107190271Y-103091492D01*
X107157334Y-102982916D01*
X107146213Y-102870000D01*
X107157334Y-102757084D01*
X107190271Y-102648508D01*
X107190272Y-102648505D01*
X107209571Y-102612399D01*
X107243756Y-102548443D01*
X107315736Y-102460736D01*
X107392646Y-102397617D01*
X107409965Y-102380298D01*
X107423579Y-102359923D01*
X107432957Y-102337284D01*
X107437737Y-102313251D01*
X107437737Y-102288747D01*
X107432957Y-102264714D01*
X107423579Y-102242075D01*
X107409966Y-102221701D01*
X107392639Y-102204374D01*
X107372264Y-102190760D01*
X107349625Y-102181382D01*
X107325592Y-102176602D01*
X107313340Y-102176000D01*
X107149000Y-102176000D01*
X107149000Y-101024000D01*
X108751000Y-101024000D01*
X108751000Y-102176000D01*
X108751000Y-102176000D01*
G37*
G36*
X101920345Y-100683442D02*
G01*
X102010548Y-100692326D01*
X102184157Y-100744990D01*
X102344156Y-100830511D01*
X102387729Y-100866271D01*
X102484397Y-100945603D01*
X102563729Y-101042271D01*
X102599489Y-101085844D01*
X102685010Y-101245843D01*
X102737674Y-101419452D01*
X102755456Y-101600000D01*
X102737674Y-101780548D01*
X102685010Y-101954157D01*
X102599489Y-102114156D01*
X102563729Y-102157729D01*
X102484397Y-102254397D01*
X102387729Y-102333729D01*
X102344156Y-102369489D01*
X102184157Y-102455010D01*
X102010548Y-102507674D01*
X101920345Y-102516558D01*
X101875245Y-102521000D01*
X101324755Y-102521000D01*
X101279655Y-102516558D01*
X101189452Y-102507674D01*
X101015843Y-102455010D01*
X100855844Y-102369489D01*
X100812271Y-102333729D01*
X100715603Y-102254397D01*
X100636271Y-102157729D01*
X100600511Y-102114156D01*
X100514990Y-101954157D01*
X100462326Y-101780548D01*
X100444544Y-101600000D01*
X100462326Y-101419452D01*
X100514990Y-101245843D01*
X100600511Y-101085844D01*
X100636271Y-101042271D01*
X100715603Y-100945603D01*
X100812271Y-100866271D01*
X100855844Y-100830511D01*
X101015843Y-100744990D01*
X101189452Y-100692326D01*
X101279655Y-100683442D01*
X101324755Y-100679000D01*
X101875245Y-100679000D01*
X101920345Y-100683442D01*
X101920345Y-100683442D01*
G37*
G36*
X162808228Y-98241703D02*
G01*
X162963100Y-98305853D01*
X163102481Y-98398985D01*
X163221015Y-98517519D01*
X163314147Y-98656900D01*
X163378297Y-98811772D01*
X163411000Y-98976184D01*
X163411000Y-99143816D01*
X163378297Y-99308228D01*
X163314147Y-99463100D01*
X163221015Y-99602481D01*
X163102481Y-99721015D01*
X162963100Y-99814147D01*
X162808228Y-99878297D01*
X162643816Y-99911000D01*
X162476184Y-99911000D01*
X162311772Y-99878297D01*
X162156900Y-99814147D01*
X162017519Y-99721015D01*
X161898985Y-99602481D01*
X161805853Y-99463100D01*
X161741703Y-99308228D01*
X161709000Y-99143816D01*
X161709000Y-98976184D01*
X161741703Y-98811772D01*
X161805853Y-98656900D01*
X161898985Y-98517519D01*
X162017519Y-98398985D01*
X162156900Y-98305853D01*
X162311772Y-98241703D01*
X162476184Y-98209000D01*
X162643816Y-98209000D01*
X162808228Y-98241703D01*
X162808228Y-98241703D01*
G37*
G36*
X134786823Y-98221313D02*
G01*
X134947242Y-98269976D01*
X135014361Y-98305852D01*
X135095078Y-98348996D01*
X135224659Y-98455341D01*
X135331004Y-98584922D01*
X135331005Y-98584924D01*
X135410024Y-98732758D01*
X135458687Y-98893177D01*
X135475117Y-99060000D01*
X135458687Y-99226823D01*
X135410024Y-99387242D01*
X135369477Y-99463100D01*
X135331004Y-99535078D01*
X135224659Y-99664659D01*
X135095078Y-99771004D01*
X135095076Y-99771005D01*
X134947242Y-99850024D01*
X134786823Y-99898687D01*
X134661804Y-99911000D01*
X134578196Y-99911000D01*
X134453177Y-99898687D01*
X134292758Y-99850024D01*
X134144924Y-99771005D01*
X134144922Y-99771004D01*
X134015341Y-99664659D01*
X133908996Y-99535078D01*
X133870523Y-99463100D01*
X133829976Y-99387242D01*
X133781313Y-99226823D01*
X133764883Y-99060000D01*
X133781313Y-98893177D01*
X133829976Y-98732758D01*
X133908995Y-98584924D01*
X133908996Y-98584922D01*
X134015341Y-98455341D01*
X134144922Y-98348996D01*
X134225639Y-98305852D01*
X134292758Y-98269976D01*
X134453177Y-98221313D01*
X134578196Y-98209000D01*
X134661804Y-98209000D01*
X134786823Y-98221313D01*
X134786823Y-98221313D01*
G37*
G36*
X139866823Y-98221313D02*
G01*
X140027242Y-98269976D01*
X140094361Y-98305852D01*
X140175078Y-98348996D01*
X140304659Y-98455341D01*
X140411004Y-98584922D01*
X140411005Y-98584924D01*
X140490024Y-98732758D01*
X140538687Y-98893177D01*
X140555117Y-99060000D01*
X140538687Y-99226823D01*
X140490024Y-99387242D01*
X140449477Y-99463100D01*
X140411004Y-99535078D01*
X140304659Y-99664659D01*
X140175078Y-99771004D01*
X140175076Y-99771005D01*
X140027242Y-99850024D01*
X139866823Y-99898687D01*
X139741804Y-99911000D01*
X139658196Y-99911000D01*
X139533177Y-99898687D01*
X139372758Y-99850024D01*
X139224924Y-99771005D01*
X139224922Y-99771004D01*
X139095341Y-99664659D01*
X138988996Y-99535078D01*
X138950523Y-99463100D01*
X138909976Y-99387242D01*
X138861313Y-99226823D01*
X138844883Y-99060000D01*
X138861313Y-98893177D01*
X138909976Y-98732758D01*
X138988995Y-98584924D01*
X138988996Y-98584922D01*
X139095341Y-98455341D01*
X139224922Y-98348996D01*
X139305639Y-98305852D01*
X139372758Y-98269976D01*
X139533177Y-98221313D01*
X139658196Y-98209000D01*
X139741804Y-98209000D01*
X139866823Y-98221313D01*
X139866823Y-98221313D01*
G37*
G36*
X122771000Y-99911000D02*
G01*
X121069000Y-99911000D01*
X121069000Y-98209000D01*
X122771000Y-98209000D01*
X122771000Y-99911000D01*
X122771000Y-99911000D01*
G37*
G36*
X124626823Y-98221313D02*
G01*
X124787242Y-98269976D01*
X124854361Y-98305852D01*
X124935078Y-98348996D01*
X125064659Y-98455341D01*
X125171004Y-98584922D01*
X125171005Y-98584924D01*
X125250024Y-98732758D01*
X125298687Y-98893177D01*
X125315117Y-99060000D01*
X125298687Y-99226823D01*
X125250024Y-99387242D01*
X125209477Y-99463100D01*
X125171004Y-99535078D01*
X125064659Y-99664659D01*
X124935078Y-99771004D01*
X124935076Y-99771005D01*
X124787242Y-99850024D01*
X124626823Y-99898687D01*
X124501804Y-99911000D01*
X124418196Y-99911000D01*
X124293177Y-99898687D01*
X124132758Y-99850024D01*
X123984924Y-99771005D01*
X123984922Y-99771004D01*
X123855341Y-99664659D01*
X123748996Y-99535078D01*
X123710523Y-99463100D01*
X123669976Y-99387242D01*
X123621313Y-99226823D01*
X123604883Y-99060000D01*
X123621313Y-98893177D01*
X123669976Y-98732758D01*
X123748995Y-98584924D01*
X123748996Y-98584922D01*
X123855341Y-98455341D01*
X123984922Y-98348996D01*
X124065639Y-98305852D01*
X124132758Y-98269976D01*
X124293177Y-98221313D01*
X124418196Y-98209000D01*
X124501804Y-98209000D01*
X124626823Y-98221313D01*
X124626823Y-98221313D01*
G37*
G36*
X127166823Y-98221313D02*
G01*
X127327242Y-98269976D01*
X127394361Y-98305852D01*
X127475078Y-98348996D01*
X127604659Y-98455341D01*
X127711004Y-98584922D01*
X127711005Y-98584924D01*
X127790024Y-98732758D01*
X127838687Y-98893177D01*
X127855117Y-99060000D01*
X127838687Y-99226823D01*
X127790024Y-99387242D01*
X127749477Y-99463100D01*
X127711004Y-99535078D01*
X127604659Y-99664659D01*
X127475078Y-99771004D01*
X127475076Y-99771005D01*
X127327242Y-99850024D01*
X127166823Y-99898687D01*
X127041804Y-99911000D01*
X126958196Y-99911000D01*
X126833177Y-99898687D01*
X126672758Y-99850024D01*
X126524924Y-99771005D01*
X126524922Y-99771004D01*
X126395341Y-99664659D01*
X126288996Y-99535078D01*
X126250523Y-99463100D01*
X126209976Y-99387242D01*
X126161313Y-99226823D01*
X126144883Y-99060000D01*
X126161313Y-98893177D01*
X126209976Y-98732758D01*
X126288995Y-98584924D01*
X126288996Y-98584922D01*
X126395341Y-98455341D01*
X126524922Y-98348996D01*
X126605639Y-98305852D01*
X126672758Y-98269976D01*
X126833177Y-98221313D01*
X126958196Y-98209000D01*
X127041804Y-98209000D01*
X127166823Y-98221313D01*
X127166823Y-98221313D01*
G37*
G36*
X137326823Y-98221313D02*
G01*
X137487242Y-98269976D01*
X137554361Y-98305852D01*
X137635078Y-98348996D01*
X137764659Y-98455341D01*
X137871004Y-98584922D01*
X137871005Y-98584924D01*
X137950024Y-98732758D01*
X137998687Y-98893177D01*
X138015117Y-99060000D01*
X137998687Y-99226823D01*
X137950024Y-99387242D01*
X137909477Y-99463100D01*
X137871004Y-99535078D01*
X137764659Y-99664659D01*
X137635078Y-99771004D01*
X137635076Y-99771005D01*
X137487242Y-99850024D01*
X137326823Y-99898687D01*
X137201804Y-99911000D01*
X137118196Y-99911000D01*
X136993177Y-99898687D01*
X136832758Y-99850024D01*
X136684924Y-99771005D01*
X136684922Y-99771004D01*
X136555341Y-99664659D01*
X136448996Y-99535078D01*
X136410523Y-99463100D01*
X136369976Y-99387242D01*
X136321313Y-99226823D01*
X136304883Y-99060000D01*
X136321313Y-98893177D01*
X136369976Y-98732758D01*
X136448995Y-98584924D01*
X136448996Y-98584922D01*
X136555341Y-98455341D01*
X136684922Y-98348996D01*
X136765639Y-98305852D01*
X136832758Y-98269976D01*
X136993177Y-98221313D01*
X137118196Y-98209000D01*
X137201804Y-98209000D01*
X137326823Y-98221313D01*
X137326823Y-98221313D01*
G37*
G36*
X129706823Y-98221313D02*
G01*
X129867242Y-98269976D01*
X129934361Y-98305852D01*
X130015078Y-98348996D01*
X130144659Y-98455341D01*
X130251004Y-98584922D01*
X130251005Y-98584924D01*
X130330024Y-98732758D01*
X130378687Y-98893177D01*
X130395117Y-99060000D01*
X130378687Y-99226823D01*
X130330024Y-99387242D01*
X130289477Y-99463100D01*
X130251004Y-99535078D01*
X130144659Y-99664659D01*
X130015078Y-99771004D01*
X130015076Y-99771005D01*
X129867242Y-99850024D01*
X129706823Y-99898687D01*
X129581804Y-99911000D01*
X129498196Y-99911000D01*
X129373177Y-99898687D01*
X129212758Y-99850024D01*
X129064924Y-99771005D01*
X129064922Y-99771004D01*
X128935341Y-99664659D01*
X128828996Y-99535078D01*
X128790523Y-99463100D01*
X128749976Y-99387242D01*
X128701313Y-99226823D01*
X128684883Y-99060000D01*
X128701313Y-98893177D01*
X128749976Y-98732758D01*
X128828995Y-98584924D01*
X128828996Y-98584922D01*
X128935341Y-98455341D01*
X129064922Y-98348996D01*
X129145639Y-98305852D01*
X129212758Y-98269976D01*
X129373177Y-98221313D01*
X129498196Y-98209000D01*
X129581804Y-98209000D01*
X129706823Y-98221313D01*
X129706823Y-98221313D01*
G37*
G36*
X132246823Y-98221313D02*
G01*
X132407242Y-98269976D01*
X132474361Y-98305852D01*
X132555078Y-98348996D01*
X132684659Y-98455341D01*
X132791004Y-98584922D01*
X132791005Y-98584924D01*
X132870024Y-98732758D01*
X132918687Y-98893177D01*
X132935117Y-99060000D01*
X132918687Y-99226823D01*
X132870024Y-99387242D01*
X132829477Y-99463100D01*
X132791004Y-99535078D01*
X132684659Y-99664659D01*
X132555078Y-99771004D01*
X132555076Y-99771005D01*
X132407242Y-99850024D01*
X132246823Y-99898687D01*
X132121804Y-99911000D01*
X132038196Y-99911000D01*
X131913177Y-99898687D01*
X131752758Y-99850024D01*
X131604924Y-99771005D01*
X131604922Y-99771004D01*
X131475341Y-99664659D01*
X131368996Y-99535078D01*
X131330523Y-99463100D01*
X131289976Y-99387242D01*
X131241313Y-99226823D01*
X131224883Y-99060000D01*
X131241313Y-98893177D01*
X131289976Y-98732758D01*
X131368995Y-98584924D01*
X131368996Y-98584922D01*
X131475341Y-98455341D01*
X131604922Y-98348996D01*
X131685639Y-98305852D01*
X131752758Y-98269976D01*
X131913177Y-98221313D01*
X132038196Y-98209000D01*
X132121804Y-98209000D01*
X132246823Y-98221313D01*
X132246823Y-98221313D01*
G37*
G36*
X155106823Y-98221313D02*
G01*
X155267242Y-98269976D01*
X155334361Y-98305852D01*
X155415078Y-98348996D01*
X155544659Y-98455341D01*
X155651004Y-98584922D01*
X155651005Y-98584924D01*
X155730024Y-98732758D01*
X155778687Y-98893177D01*
X155795117Y-99060000D01*
X155778687Y-99226823D01*
X155730024Y-99387242D01*
X155689477Y-99463100D01*
X155651004Y-99535078D01*
X155544659Y-99664659D01*
X155415078Y-99771004D01*
X155415076Y-99771005D01*
X155267242Y-99850024D01*
X155106823Y-99898687D01*
X154981804Y-99911000D01*
X154898196Y-99911000D01*
X154773177Y-99898687D01*
X154612758Y-99850024D01*
X154464924Y-99771005D01*
X154464922Y-99771004D01*
X154335341Y-99664659D01*
X154228996Y-99535078D01*
X154190523Y-99463100D01*
X154149976Y-99387242D01*
X154101313Y-99226823D01*
X154084883Y-99060000D01*
X154101313Y-98893177D01*
X154149976Y-98732758D01*
X154228995Y-98584924D01*
X154228996Y-98584922D01*
X154335341Y-98455341D01*
X154464922Y-98348996D01*
X154545639Y-98305852D01*
X154612758Y-98269976D01*
X154773177Y-98221313D01*
X154898196Y-98209000D01*
X154981804Y-98209000D01*
X155106823Y-98221313D01*
X155106823Y-98221313D01*
G37*
G36*
X152566823Y-98221313D02*
G01*
X152727242Y-98269976D01*
X152794361Y-98305852D01*
X152875078Y-98348996D01*
X153004659Y-98455341D01*
X153111004Y-98584922D01*
X153111005Y-98584924D01*
X153190024Y-98732758D01*
X153238687Y-98893177D01*
X153255117Y-99060000D01*
X153238687Y-99226823D01*
X153190024Y-99387242D01*
X153149477Y-99463100D01*
X153111004Y-99535078D01*
X153004659Y-99664659D01*
X152875078Y-99771004D01*
X152875076Y-99771005D01*
X152727242Y-99850024D01*
X152566823Y-99898687D01*
X152441804Y-99911000D01*
X152358196Y-99911000D01*
X152233177Y-99898687D01*
X152072758Y-99850024D01*
X151924924Y-99771005D01*
X151924922Y-99771004D01*
X151795341Y-99664659D01*
X151688996Y-99535078D01*
X151650523Y-99463100D01*
X151609976Y-99387242D01*
X151561313Y-99226823D01*
X151544883Y-99060000D01*
X151561313Y-98893177D01*
X151609976Y-98732758D01*
X151688995Y-98584924D01*
X151688996Y-98584922D01*
X151795341Y-98455341D01*
X151924922Y-98348996D01*
X152005639Y-98305852D01*
X152072758Y-98269976D01*
X152233177Y-98221313D01*
X152358196Y-98209000D01*
X152441804Y-98209000D01*
X152566823Y-98221313D01*
X152566823Y-98221313D01*
G37*
G36*
X150026823Y-98221313D02*
G01*
X150187242Y-98269976D01*
X150254361Y-98305852D01*
X150335078Y-98348996D01*
X150464659Y-98455341D01*
X150571004Y-98584922D01*
X150571005Y-98584924D01*
X150650024Y-98732758D01*
X150698687Y-98893177D01*
X150715117Y-99060000D01*
X150698687Y-99226823D01*
X150650024Y-99387242D01*
X150609477Y-99463100D01*
X150571004Y-99535078D01*
X150464659Y-99664659D01*
X150335078Y-99771004D01*
X150335076Y-99771005D01*
X150187242Y-99850024D01*
X150026823Y-99898687D01*
X149901804Y-99911000D01*
X149818196Y-99911000D01*
X149693177Y-99898687D01*
X149532758Y-99850024D01*
X149384924Y-99771005D01*
X149384922Y-99771004D01*
X149255341Y-99664659D01*
X149148996Y-99535078D01*
X149110523Y-99463100D01*
X149069976Y-99387242D01*
X149021313Y-99226823D01*
X149004883Y-99060000D01*
X149021313Y-98893177D01*
X149069976Y-98732758D01*
X149148995Y-98584924D01*
X149148996Y-98584922D01*
X149255341Y-98455341D01*
X149384922Y-98348996D01*
X149465639Y-98305852D01*
X149532758Y-98269976D01*
X149693177Y-98221313D01*
X149818196Y-98209000D01*
X149901804Y-98209000D01*
X150026823Y-98221313D01*
X150026823Y-98221313D01*
G37*
G36*
X147486823Y-98221313D02*
G01*
X147647242Y-98269976D01*
X147714361Y-98305852D01*
X147795078Y-98348996D01*
X147924659Y-98455341D01*
X148031004Y-98584922D01*
X148031005Y-98584924D01*
X148110024Y-98732758D01*
X148158687Y-98893177D01*
X148175117Y-99060000D01*
X148158687Y-99226823D01*
X148110024Y-99387242D01*
X148069477Y-99463100D01*
X148031004Y-99535078D01*
X147924659Y-99664659D01*
X147795078Y-99771004D01*
X147795076Y-99771005D01*
X147647242Y-99850024D01*
X147486823Y-99898687D01*
X147361804Y-99911000D01*
X147278196Y-99911000D01*
X147153177Y-99898687D01*
X146992758Y-99850024D01*
X146844924Y-99771005D01*
X146844922Y-99771004D01*
X146715341Y-99664659D01*
X146608996Y-99535078D01*
X146570523Y-99463100D01*
X146529976Y-99387242D01*
X146481313Y-99226823D01*
X146464883Y-99060000D01*
X146481313Y-98893177D01*
X146529976Y-98732758D01*
X146608995Y-98584924D01*
X146608996Y-98584922D01*
X146715341Y-98455341D01*
X146844922Y-98348996D01*
X146925639Y-98305852D01*
X146992758Y-98269976D01*
X147153177Y-98221313D01*
X147278196Y-98209000D01*
X147361804Y-98209000D01*
X147486823Y-98221313D01*
X147486823Y-98221313D01*
G37*
G36*
X144946823Y-98221313D02*
G01*
X145107242Y-98269976D01*
X145174361Y-98305852D01*
X145255078Y-98348996D01*
X145384659Y-98455341D01*
X145491004Y-98584922D01*
X145491005Y-98584924D01*
X145570024Y-98732758D01*
X145618687Y-98893177D01*
X145635117Y-99060000D01*
X145618687Y-99226823D01*
X145570024Y-99387242D01*
X145529477Y-99463100D01*
X145491004Y-99535078D01*
X145384659Y-99664659D01*
X145255078Y-99771004D01*
X145255076Y-99771005D01*
X145107242Y-99850024D01*
X144946823Y-99898687D01*
X144821804Y-99911000D01*
X144738196Y-99911000D01*
X144613177Y-99898687D01*
X144452758Y-99850024D01*
X144304924Y-99771005D01*
X144304922Y-99771004D01*
X144175341Y-99664659D01*
X144068996Y-99535078D01*
X144030523Y-99463100D01*
X143989976Y-99387242D01*
X143941313Y-99226823D01*
X143924883Y-99060000D01*
X143941313Y-98893177D01*
X143989976Y-98732758D01*
X144068995Y-98584924D01*
X144068996Y-98584922D01*
X144175341Y-98455341D01*
X144304922Y-98348996D01*
X144385639Y-98305852D01*
X144452758Y-98269976D01*
X144613177Y-98221313D01*
X144738196Y-98209000D01*
X144821804Y-98209000D01*
X144946823Y-98221313D01*
X144946823Y-98221313D01*
G37*
G36*
X142406823Y-98221313D02*
G01*
X142567242Y-98269976D01*
X142634361Y-98305852D01*
X142715078Y-98348996D01*
X142844659Y-98455341D01*
X142951004Y-98584922D01*
X142951005Y-98584924D01*
X143030024Y-98732758D01*
X143078687Y-98893177D01*
X143095117Y-99060000D01*
X143078687Y-99226823D01*
X143030024Y-99387242D01*
X142989477Y-99463100D01*
X142951004Y-99535078D01*
X142844659Y-99664659D01*
X142715078Y-99771004D01*
X142715076Y-99771005D01*
X142567242Y-99850024D01*
X142406823Y-99898687D01*
X142281804Y-99911000D01*
X142198196Y-99911000D01*
X142073177Y-99898687D01*
X141912758Y-99850024D01*
X141764924Y-99771005D01*
X141764922Y-99771004D01*
X141635341Y-99664659D01*
X141528996Y-99535078D01*
X141490523Y-99463100D01*
X141449976Y-99387242D01*
X141401313Y-99226823D01*
X141384883Y-99060000D01*
X141401313Y-98893177D01*
X141449976Y-98732758D01*
X141528995Y-98584924D01*
X141528996Y-98584922D01*
X141635341Y-98455341D01*
X141764922Y-98348996D01*
X141845639Y-98305852D01*
X141912758Y-98269976D01*
X142073177Y-98221313D01*
X142198196Y-98209000D01*
X142281804Y-98209000D01*
X142406823Y-98221313D01*
X142406823Y-98221313D01*
G37*
G36*
X102609561Y-95602966D02*
G01*
X102642383Y-95612923D01*
X102672632Y-95629092D01*
X102699148Y-95650852D01*
X102720908Y-95677368D01*
X102737077Y-95707617D01*
X102747034Y-95740439D01*
X102751000Y-95780713D01*
X102751000Y-97259287D01*
X102747034Y-97299561D01*
X102737077Y-97332383D01*
X102720908Y-97362632D01*
X102699148Y-97389148D01*
X102672632Y-97410908D01*
X102642383Y-97427077D01*
X102609561Y-97437034D01*
X102569287Y-97441000D01*
X100630713Y-97441000D01*
X100590439Y-97437034D01*
X100557617Y-97427077D01*
X100527368Y-97410908D01*
X100500852Y-97389148D01*
X100479092Y-97362632D01*
X100462923Y-97332383D01*
X100452966Y-97299561D01*
X100449000Y-97259287D01*
X100449000Y-95780713D01*
X100452966Y-95740439D01*
X100462923Y-95707617D01*
X100479092Y-95677368D01*
X100500852Y-95650852D01*
X100527368Y-95629092D01*
X100557617Y-95612923D01*
X100590439Y-95602966D01*
X100630713Y-95599000D01*
X102569287Y-95599000D01*
X102609561Y-95602966D01*
X102609561Y-95602966D01*
G37*
G36*
X178088228Y-95701703D02*
G01*
X178243100Y-95765853D01*
X178382481Y-95858985D01*
X178501015Y-95977519D01*
X178594147Y-96116900D01*
X178658297Y-96271772D01*
X178691000Y-96436184D01*
X178691000Y-96603816D01*
X178658297Y-96768228D01*
X178594147Y-96923100D01*
X178501015Y-97062481D01*
X178382481Y-97181015D01*
X178243100Y-97274147D01*
X178088228Y-97338297D01*
X177923816Y-97371000D01*
X177756184Y-97371000D01*
X177591772Y-97338297D01*
X177436900Y-97274147D01*
X177297519Y-97181015D01*
X177178985Y-97062481D01*
X177085853Y-96923100D01*
X177021703Y-96768228D01*
X176989000Y-96603816D01*
X176989000Y-96436184D01*
X177021703Y-96271772D01*
X177085853Y-96116900D01*
X177178985Y-95977519D01*
X177297519Y-95858985D01*
X177436900Y-95765853D01*
X177591772Y-95701703D01*
X177756184Y-95669000D01*
X177923816Y-95669000D01*
X178088228Y-95701703D01*
X178088228Y-95701703D01*
G37*
G36*
X114548228Y-95701703D02*
G01*
X114703100Y-95765853D01*
X114842481Y-95858985D01*
X114961015Y-95977519D01*
X115054147Y-96116900D01*
X115118297Y-96271772D01*
X115151000Y-96436184D01*
X115151000Y-96603816D01*
X115118297Y-96768228D01*
X115054147Y-96923100D01*
X114961015Y-97062481D01*
X114842481Y-97181015D01*
X114703100Y-97274147D01*
X114548228Y-97338297D01*
X114383816Y-97371000D01*
X114216184Y-97371000D01*
X114051772Y-97338297D01*
X113896900Y-97274147D01*
X113757519Y-97181015D01*
X113638985Y-97062481D01*
X113545853Y-96923100D01*
X113481703Y-96768228D01*
X113449000Y-96603816D01*
X113449000Y-96436184D01*
X113481703Y-96271772D01*
X113545853Y-96116900D01*
X113638985Y-95977519D01*
X113757519Y-95858985D01*
X113896900Y-95765853D01*
X114051772Y-95701703D01*
X114216184Y-95669000D01*
X114383816Y-95669000D01*
X114548228Y-95701703D01*
X114548228Y-95701703D01*
G37*
G36*
X180588228Y-95701703D02*
G01*
X180743100Y-95765853D01*
X180882481Y-95858985D01*
X181001015Y-95977519D01*
X181094147Y-96116900D01*
X181158297Y-96271772D01*
X181191000Y-96436184D01*
X181191000Y-96603816D01*
X181158297Y-96768228D01*
X181094147Y-96923100D01*
X181001015Y-97062481D01*
X180882481Y-97181015D01*
X180743100Y-97274147D01*
X180588228Y-97338297D01*
X180423816Y-97371000D01*
X180256184Y-97371000D01*
X180091772Y-97338297D01*
X179936900Y-97274147D01*
X179797519Y-97181015D01*
X179678985Y-97062481D01*
X179585853Y-96923100D01*
X179521703Y-96768228D01*
X179489000Y-96603816D01*
X179489000Y-96436184D01*
X179521703Y-96271772D01*
X179585853Y-96116900D01*
X179678985Y-95977519D01*
X179797519Y-95858985D01*
X179936900Y-95765853D01*
X180091772Y-95701703D01*
X180256184Y-95669000D01*
X180423816Y-95669000D01*
X180588228Y-95701703D01*
X180588228Y-95701703D01*
G37*
G36*
X170413642Y-95749781D02*
G01*
X170559414Y-95810162D01*
X170559416Y-95810163D01*
X170690608Y-95897822D01*
X170802178Y-96009392D01*
X170821798Y-96038756D01*
X170889838Y-96140586D01*
X170950219Y-96286358D01*
X170981000Y-96441107D01*
X170981000Y-96598893D01*
X170950219Y-96753642D01*
X170913804Y-96841555D01*
X170889837Y-96899416D01*
X170802178Y-97030608D01*
X170690608Y-97142178D01*
X170559416Y-97229837D01*
X170559415Y-97229838D01*
X170559414Y-97229838D01*
X170413642Y-97290219D01*
X170258893Y-97321000D01*
X170101107Y-97321000D01*
X169946358Y-97290219D01*
X169800586Y-97229838D01*
X169800585Y-97229838D01*
X169800584Y-97229837D01*
X169669392Y-97142178D01*
X169557822Y-97030608D01*
X169470163Y-96899416D01*
X169446196Y-96841555D01*
X169409781Y-96753642D01*
X169379000Y-96598893D01*
X169379000Y-96441107D01*
X169409781Y-96286358D01*
X169470162Y-96140586D01*
X169538202Y-96038756D01*
X169557822Y-96009392D01*
X169669392Y-95897822D01*
X169800584Y-95810163D01*
X169800586Y-95810162D01*
X169946358Y-95749781D01*
X170101107Y-95719000D01*
X170258893Y-95719000D01*
X170413642Y-95749781D01*
X170413642Y-95749781D01*
G37*
G36*
X108751000Y-94556000D02*
G01*
X108586660Y-94556000D01*
X108562274Y-94558402D01*
X108538825Y-94565515D01*
X108517214Y-94577066D01*
X108498272Y-94592611D01*
X108482727Y-94611553D01*
X108471176Y-94633164D01*
X108464063Y-94656613D01*
X108461661Y-94680999D01*
X108464063Y-94705385D01*
X108471176Y-94728834D01*
X108482727Y-94750445D01*
X108498272Y-94769387D01*
X108507345Y-94777609D01*
X108584264Y-94840736D01*
X108656244Y-94928443D01*
X108690429Y-94992399D01*
X108709728Y-95028505D01*
X108709729Y-95028508D01*
X108742666Y-95137084D01*
X108753787Y-95250000D01*
X108742666Y-95362916D01*
X108709729Y-95471492D01*
X108709728Y-95471495D01*
X108690429Y-95507601D01*
X108656244Y-95571557D01*
X108584264Y-95659264D01*
X108496557Y-95731244D01*
X108431807Y-95765853D01*
X108415141Y-95774761D01*
X108394766Y-95788375D01*
X108377439Y-95805702D01*
X108363826Y-95826076D01*
X108354448Y-95848715D01*
X108349668Y-95872748D01*
X108349668Y-95897252D01*
X108354448Y-95921285D01*
X108363826Y-95943924D01*
X108377440Y-95964299D01*
X108394767Y-95981626D01*
X108415141Y-95995239D01*
X108496557Y-96038756D01*
X108584264Y-96110736D01*
X108656244Y-96198443D01*
X108690429Y-96262399D01*
X108709728Y-96298505D01*
X108709729Y-96298508D01*
X108742666Y-96407084D01*
X108753787Y-96520000D01*
X108742666Y-96632916D01*
X108709729Y-96741492D01*
X108709728Y-96741495D01*
X108695439Y-96768228D01*
X108656244Y-96841557D01*
X108584264Y-96929264D01*
X108496557Y-97001244D01*
X108441622Y-97030607D01*
X108396495Y-97054728D01*
X108396492Y-97054729D01*
X108287916Y-97087666D01*
X108203298Y-97096000D01*
X107696702Y-97096000D01*
X107612084Y-97087666D01*
X107503508Y-97054729D01*
X107503505Y-97054728D01*
X107458378Y-97030607D01*
X107403443Y-97001244D01*
X107315736Y-96929264D01*
X107243756Y-96841557D01*
X107204561Y-96768228D01*
X107190272Y-96741495D01*
X107190271Y-96741492D01*
X107157334Y-96632916D01*
X107146213Y-96520000D01*
X107157334Y-96407084D01*
X107190271Y-96298508D01*
X107190272Y-96298505D01*
X107209571Y-96262399D01*
X107243756Y-96198443D01*
X107315736Y-96110736D01*
X107403443Y-96038756D01*
X107484859Y-95995239D01*
X107505234Y-95981625D01*
X107522561Y-95964298D01*
X107536174Y-95943924D01*
X107545552Y-95921285D01*
X107550332Y-95897252D01*
X107550332Y-95872748D01*
X107545552Y-95848715D01*
X107536174Y-95826076D01*
X107522560Y-95805701D01*
X107505233Y-95788374D01*
X107484859Y-95774761D01*
X107468193Y-95765853D01*
X107403443Y-95731244D01*
X107315736Y-95659264D01*
X107243756Y-95571557D01*
X107209571Y-95507601D01*
X107190272Y-95471495D01*
X107190271Y-95471492D01*
X107157334Y-95362916D01*
X107146213Y-95250000D01*
X107157334Y-95137084D01*
X107190271Y-95028508D01*
X107190272Y-95028505D01*
X107209571Y-94992399D01*
X107243756Y-94928443D01*
X107315736Y-94840736D01*
X107392646Y-94777617D01*
X107409965Y-94760298D01*
X107423579Y-94739923D01*
X107432957Y-94717284D01*
X107437737Y-94693251D01*
X107437737Y-94668747D01*
X107432957Y-94644714D01*
X107423579Y-94622075D01*
X107409966Y-94601701D01*
X107392639Y-94584374D01*
X107372264Y-94570760D01*
X107349625Y-94561382D01*
X107325592Y-94556602D01*
X107313340Y-94556000D01*
X107149000Y-94556000D01*
X107149000Y-93404000D01*
X108751000Y-93404000D01*
X108751000Y-94556000D01*
X108751000Y-94556000D01*
G37*
G36*
X101920345Y-93063442D02*
G01*
X102010548Y-93072326D01*
X102184157Y-93124990D01*
X102344156Y-93210511D01*
X102387729Y-93246271D01*
X102484397Y-93325603D01*
X102563729Y-93422271D01*
X102599489Y-93465844D01*
X102685010Y-93625843D01*
X102737674Y-93799452D01*
X102755456Y-93980000D01*
X102737674Y-94160548D01*
X102685010Y-94334157D01*
X102599489Y-94494156D01*
X102563729Y-94537729D01*
X102484397Y-94634397D01*
X102387729Y-94713729D01*
X102344156Y-94749489D01*
X102184157Y-94835010D01*
X102010548Y-94887674D01*
X101920345Y-94896558D01*
X101875245Y-94901000D01*
X101324755Y-94901000D01*
X101279655Y-94896558D01*
X101189452Y-94887674D01*
X101015843Y-94835010D01*
X100855844Y-94749489D01*
X100812271Y-94713729D01*
X100715603Y-94634397D01*
X100636271Y-94537729D01*
X100600511Y-94494156D01*
X100514990Y-94334157D01*
X100462326Y-94160548D01*
X100444544Y-93980000D01*
X100462326Y-93799452D01*
X100514990Y-93625843D01*
X100600511Y-93465844D01*
X100636271Y-93422271D01*
X100715603Y-93325603D01*
X100812271Y-93246271D01*
X100855844Y-93210511D01*
X101015843Y-93124990D01*
X101189452Y-93072326D01*
X101279655Y-93063442D01*
X101324755Y-93059000D01*
X101875245Y-93059000D01*
X101920345Y-93063442D01*
X101920345Y-93063442D01*
G37*
G36*
X170413642Y-90869781D02*
G01*
X170559414Y-90930162D01*
X170559416Y-90930163D01*
X170690608Y-91017822D01*
X170802178Y-91129392D01*
X170889837Y-91260584D01*
X170889838Y-91260586D01*
X170950219Y-91406358D01*
X170981000Y-91561107D01*
X170981000Y-91718893D01*
X170950219Y-91873642D01*
X170889838Y-92019414D01*
X170889837Y-92019416D01*
X170802178Y-92150608D01*
X170690608Y-92262178D01*
X170559416Y-92349837D01*
X170559415Y-92349838D01*
X170559414Y-92349838D01*
X170413642Y-92410219D01*
X170258893Y-92441000D01*
X170101107Y-92441000D01*
X169946358Y-92410219D01*
X169800586Y-92349838D01*
X169800585Y-92349838D01*
X169800584Y-92349837D01*
X169669392Y-92262178D01*
X169557822Y-92150608D01*
X169470163Y-92019416D01*
X169470162Y-92019414D01*
X169409781Y-91873642D01*
X169379000Y-91718893D01*
X169379000Y-91561107D01*
X169409781Y-91406358D01*
X169470162Y-91260586D01*
X169470163Y-91260584D01*
X169557822Y-91129392D01*
X169669392Y-91017822D01*
X169800584Y-90930163D01*
X169800586Y-90930162D01*
X169946358Y-90869781D01*
X170101107Y-90839000D01*
X170258893Y-90839000D01*
X170413642Y-90869781D01*
X170413642Y-90869781D01*
G37*
G36*
X127166823Y-90601313D02*
G01*
X127327242Y-90649976D01*
X127459906Y-90720886D01*
X127475078Y-90728996D01*
X127604659Y-90835341D01*
X127711004Y-90964922D01*
X127711005Y-90964924D01*
X127790024Y-91112758D01*
X127838687Y-91273177D01*
X127855117Y-91440000D01*
X127838687Y-91606823D01*
X127790024Y-91767242D01*
X127733152Y-91873642D01*
X127711004Y-91915078D01*
X127604659Y-92044659D01*
X127475078Y-92151004D01*
X127475076Y-92151005D01*
X127327242Y-92230024D01*
X127166823Y-92278687D01*
X127041804Y-92291000D01*
X126958196Y-92291000D01*
X126833177Y-92278687D01*
X126672758Y-92230024D01*
X126524924Y-92151005D01*
X126524922Y-92151004D01*
X126395341Y-92044659D01*
X126288996Y-91915078D01*
X126266848Y-91873642D01*
X126209976Y-91767242D01*
X126161313Y-91606823D01*
X126144883Y-91440000D01*
X126161313Y-91273177D01*
X126209976Y-91112758D01*
X126288995Y-90964924D01*
X126288996Y-90964922D01*
X126395341Y-90835341D01*
X126524922Y-90728996D01*
X126540094Y-90720886D01*
X126672758Y-90649976D01*
X126833177Y-90601313D01*
X126958196Y-90589000D01*
X127041804Y-90589000D01*
X127166823Y-90601313D01*
X127166823Y-90601313D01*
G37*
G36*
X142406823Y-90601313D02*
G01*
X142567242Y-90649976D01*
X142699906Y-90720886D01*
X142715078Y-90728996D01*
X142844659Y-90835341D01*
X142951004Y-90964922D01*
X142951005Y-90964924D01*
X143030024Y-91112758D01*
X143078687Y-91273177D01*
X143095117Y-91440000D01*
X143078687Y-91606823D01*
X143030024Y-91767242D01*
X142973152Y-91873642D01*
X142951004Y-91915078D01*
X142844659Y-92044659D01*
X142715078Y-92151004D01*
X142715076Y-92151005D01*
X142567242Y-92230024D01*
X142406823Y-92278687D01*
X142281804Y-92291000D01*
X142198196Y-92291000D01*
X142073177Y-92278687D01*
X141912758Y-92230024D01*
X141764924Y-92151005D01*
X141764922Y-92151004D01*
X141635341Y-92044659D01*
X141528996Y-91915078D01*
X141506848Y-91873642D01*
X141449976Y-91767242D01*
X141401313Y-91606823D01*
X141384883Y-91440000D01*
X141401313Y-91273177D01*
X141449976Y-91112758D01*
X141528995Y-90964924D01*
X141528996Y-90964922D01*
X141635341Y-90835341D01*
X141764922Y-90728996D01*
X141780094Y-90720886D01*
X141912758Y-90649976D01*
X142073177Y-90601313D01*
X142198196Y-90589000D01*
X142281804Y-90589000D01*
X142406823Y-90601313D01*
X142406823Y-90601313D01*
G37*
G36*
X139866823Y-90601313D02*
G01*
X140027242Y-90649976D01*
X140159906Y-90720886D01*
X140175078Y-90728996D01*
X140304659Y-90835341D01*
X140411004Y-90964922D01*
X140411005Y-90964924D01*
X140490024Y-91112758D01*
X140538687Y-91273177D01*
X140555117Y-91440000D01*
X140538687Y-91606823D01*
X140490024Y-91767242D01*
X140433152Y-91873642D01*
X140411004Y-91915078D01*
X140304659Y-92044659D01*
X140175078Y-92151004D01*
X140175076Y-92151005D01*
X140027242Y-92230024D01*
X139866823Y-92278687D01*
X139741804Y-92291000D01*
X139658196Y-92291000D01*
X139533177Y-92278687D01*
X139372758Y-92230024D01*
X139224924Y-92151005D01*
X139224922Y-92151004D01*
X139095341Y-92044659D01*
X138988996Y-91915078D01*
X138966848Y-91873642D01*
X138909976Y-91767242D01*
X138861313Y-91606823D01*
X138844883Y-91440000D01*
X138861313Y-91273177D01*
X138909976Y-91112758D01*
X138988995Y-90964924D01*
X138988996Y-90964922D01*
X139095341Y-90835341D01*
X139224922Y-90728996D01*
X139240094Y-90720886D01*
X139372758Y-90649976D01*
X139533177Y-90601313D01*
X139658196Y-90589000D01*
X139741804Y-90589000D01*
X139866823Y-90601313D01*
X139866823Y-90601313D01*
G37*
G36*
X137326823Y-90601313D02*
G01*
X137487242Y-90649976D01*
X137619906Y-90720886D01*
X137635078Y-90728996D01*
X137764659Y-90835341D01*
X137871004Y-90964922D01*
X137871005Y-90964924D01*
X137950024Y-91112758D01*
X137998687Y-91273177D01*
X138015117Y-91440000D01*
X137998687Y-91606823D01*
X137950024Y-91767242D01*
X137893152Y-91873642D01*
X137871004Y-91915078D01*
X137764659Y-92044659D01*
X137635078Y-92151004D01*
X137635076Y-92151005D01*
X137487242Y-92230024D01*
X137326823Y-92278687D01*
X137201804Y-92291000D01*
X137118196Y-92291000D01*
X136993177Y-92278687D01*
X136832758Y-92230024D01*
X136684924Y-92151005D01*
X136684922Y-92151004D01*
X136555341Y-92044659D01*
X136448996Y-91915078D01*
X136426848Y-91873642D01*
X136369976Y-91767242D01*
X136321313Y-91606823D01*
X136304883Y-91440000D01*
X136321313Y-91273177D01*
X136369976Y-91112758D01*
X136448995Y-90964924D01*
X136448996Y-90964922D01*
X136555341Y-90835341D01*
X136684922Y-90728996D01*
X136700094Y-90720886D01*
X136832758Y-90649976D01*
X136993177Y-90601313D01*
X137118196Y-90589000D01*
X137201804Y-90589000D01*
X137326823Y-90601313D01*
X137326823Y-90601313D01*
G37*
G36*
X134786823Y-90601313D02*
G01*
X134947242Y-90649976D01*
X135079906Y-90720886D01*
X135095078Y-90728996D01*
X135224659Y-90835341D01*
X135331004Y-90964922D01*
X135331005Y-90964924D01*
X135410024Y-91112758D01*
X135458687Y-91273177D01*
X135475117Y-91440000D01*
X135458687Y-91606823D01*
X135410024Y-91767242D01*
X135353152Y-91873642D01*
X135331004Y-91915078D01*
X135224659Y-92044659D01*
X135095078Y-92151004D01*
X135095076Y-92151005D01*
X134947242Y-92230024D01*
X134786823Y-92278687D01*
X134661804Y-92291000D01*
X134578196Y-92291000D01*
X134453177Y-92278687D01*
X134292758Y-92230024D01*
X134144924Y-92151005D01*
X134144922Y-92151004D01*
X134015341Y-92044659D01*
X133908996Y-91915078D01*
X133886848Y-91873642D01*
X133829976Y-91767242D01*
X133781313Y-91606823D01*
X133764883Y-91440000D01*
X133781313Y-91273177D01*
X133829976Y-91112758D01*
X133908995Y-90964924D01*
X133908996Y-90964922D01*
X134015341Y-90835341D01*
X134144922Y-90728996D01*
X134160094Y-90720886D01*
X134292758Y-90649976D01*
X134453177Y-90601313D01*
X134578196Y-90589000D01*
X134661804Y-90589000D01*
X134786823Y-90601313D01*
X134786823Y-90601313D01*
G37*
G36*
X132246823Y-90601313D02*
G01*
X132407242Y-90649976D01*
X132539906Y-90720886D01*
X132555078Y-90728996D01*
X132684659Y-90835341D01*
X132791004Y-90964922D01*
X132791005Y-90964924D01*
X132870024Y-91112758D01*
X132918687Y-91273177D01*
X132935117Y-91440000D01*
X132918687Y-91606823D01*
X132870024Y-91767242D01*
X132813152Y-91873642D01*
X132791004Y-91915078D01*
X132684659Y-92044659D01*
X132555078Y-92151004D01*
X132555076Y-92151005D01*
X132407242Y-92230024D01*
X132246823Y-92278687D01*
X132121804Y-92291000D01*
X132038196Y-92291000D01*
X131913177Y-92278687D01*
X131752758Y-92230024D01*
X131604924Y-92151005D01*
X131604922Y-92151004D01*
X131475341Y-92044659D01*
X131368996Y-91915078D01*
X131346848Y-91873642D01*
X131289976Y-91767242D01*
X131241313Y-91606823D01*
X131224883Y-91440000D01*
X131241313Y-91273177D01*
X131289976Y-91112758D01*
X131368995Y-90964924D01*
X131368996Y-90964922D01*
X131475341Y-90835341D01*
X131604922Y-90728996D01*
X131620094Y-90720886D01*
X131752758Y-90649976D01*
X131913177Y-90601313D01*
X132038196Y-90589000D01*
X132121804Y-90589000D01*
X132246823Y-90601313D01*
X132246823Y-90601313D01*
G37*
G36*
X129706823Y-90601313D02*
G01*
X129867242Y-90649976D01*
X129999906Y-90720886D01*
X130015078Y-90728996D01*
X130144659Y-90835341D01*
X130251004Y-90964922D01*
X130251005Y-90964924D01*
X130330024Y-91112758D01*
X130378687Y-91273177D01*
X130395117Y-91440000D01*
X130378687Y-91606823D01*
X130330024Y-91767242D01*
X130273152Y-91873642D01*
X130251004Y-91915078D01*
X130144659Y-92044659D01*
X130015078Y-92151004D01*
X130015076Y-92151005D01*
X129867242Y-92230024D01*
X129706823Y-92278687D01*
X129581804Y-92291000D01*
X129498196Y-92291000D01*
X129373177Y-92278687D01*
X129212758Y-92230024D01*
X129064924Y-92151005D01*
X129064922Y-92151004D01*
X128935341Y-92044659D01*
X128828996Y-91915078D01*
X128806848Y-91873642D01*
X128749976Y-91767242D01*
X128701313Y-91606823D01*
X128684883Y-91440000D01*
X128701313Y-91273177D01*
X128749976Y-91112758D01*
X128828995Y-90964924D01*
X128828996Y-90964922D01*
X128935341Y-90835341D01*
X129064922Y-90728996D01*
X129080094Y-90720886D01*
X129212758Y-90649976D01*
X129373177Y-90601313D01*
X129498196Y-90589000D01*
X129581804Y-90589000D01*
X129706823Y-90601313D01*
X129706823Y-90601313D01*
G37*
G36*
X124626823Y-90601313D02*
G01*
X124787242Y-90649976D01*
X124919906Y-90720886D01*
X124935078Y-90728996D01*
X125064659Y-90835341D01*
X125171004Y-90964922D01*
X125171005Y-90964924D01*
X125250024Y-91112758D01*
X125298687Y-91273177D01*
X125315117Y-91440000D01*
X125298687Y-91606823D01*
X125250024Y-91767242D01*
X125193152Y-91873642D01*
X125171004Y-91915078D01*
X125064659Y-92044659D01*
X124935078Y-92151004D01*
X124935076Y-92151005D01*
X124787242Y-92230024D01*
X124626823Y-92278687D01*
X124501804Y-92291000D01*
X124418196Y-92291000D01*
X124293177Y-92278687D01*
X124132758Y-92230024D01*
X123984924Y-92151005D01*
X123984922Y-92151004D01*
X123855341Y-92044659D01*
X123748996Y-91915078D01*
X123726848Y-91873642D01*
X123669976Y-91767242D01*
X123621313Y-91606823D01*
X123604883Y-91440000D01*
X123621313Y-91273177D01*
X123669976Y-91112758D01*
X123748995Y-90964924D01*
X123748996Y-90964922D01*
X123855341Y-90835341D01*
X123984922Y-90728996D01*
X124000094Y-90720886D01*
X124132758Y-90649976D01*
X124293177Y-90601313D01*
X124418196Y-90589000D01*
X124501804Y-90589000D01*
X124626823Y-90601313D01*
X124626823Y-90601313D01*
G37*
G36*
X144946823Y-90601313D02*
G01*
X145107242Y-90649976D01*
X145239906Y-90720886D01*
X145255078Y-90728996D01*
X145384659Y-90835341D01*
X145491004Y-90964922D01*
X145491005Y-90964924D01*
X145570024Y-91112758D01*
X145618687Y-91273177D01*
X145635117Y-91440000D01*
X145618687Y-91606823D01*
X145570024Y-91767242D01*
X145513152Y-91873642D01*
X145491004Y-91915078D01*
X145384659Y-92044659D01*
X145255078Y-92151004D01*
X145255076Y-92151005D01*
X145107242Y-92230024D01*
X144946823Y-92278687D01*
X144821804Y-92291000D01*
X144738196Y-92291000D01*
X144613177Y-92278687D01*
X144452758Y-92230024D01*
X144304924Y-92151005D01*
X144304922Y-92151004D01*
X144175341Y-92044659D01*
X144068996Y-91915078D01*
X144046848Y-91873642D01*
X143989976Y-91767242D01*
X143941313Y-91606823D01*
X143924883Y-91440000D01*
X143941313Y-91273177D01*
X143989976Y-91112758D01*
X144068995Y-90964924D01*
X144068996Y-90964922D01*
X144175341Y-90835341D01*
X144304922Y-90728996D01*
X144320094Y-90720886D01*
X144452758Y-90649976D01*
X144613177Y-90601313D01*
X144738196Y-90589000D01*
X144821804Y-90589000D01*
X144946823Y-90601313D01*
X144946823Y-90601313D01*
G37*
G36*
X147486823Y-90601313D02*
G01*
X147647242Y-90649976D01*
X147779906Y-90720886D01*
X147795078Y-90728996D01*
X147924659Y-90835341D01*
X148031004Y-90964922D01*
X148031005Y-90964924D01*
X148110024Y-91112758D01*
X148158687Y-91273177D01*
X148175117Y-91440000D01*
X148158687Y-91606823D01*
X148110024Y-91767242D01*
X148053152Y-91873642D01*
X148031004Y-91915078D01*
X147924659Y-92044659D01*
X147795078Y-92151004D01*
X147795076Y-92151005D01*
X147647242Y-92230024D01*
X147486823Y-92278687D01*
X147361804Y-92291000D01*
X147278196Y-92291000D01*
X147153177Y-92278687D01*
X146992758Y-92230024D01*
X146844924Y-92151005D01*
X146844922Y-92151004D01*
X146715341Y-92044659D01*
X146608996Y-91915078D01*
X146586848Y-91873642D01*
X146529976Y-91767242D01*
X146481313Y-91606823D01*
X146464883Y-91440000D01*
X146481313Y-91273177D01*
X146529976Y-91112758D01*
X146608995Y-90964924D01*
X146608996Y-90964922D01*
X146715341Y-90835341D01*
X146844922Y-90728996D01*
X146860094Y-90720886D01*
X146992758Y-90649976D01*
X147153177Y-90601313D01*
X147278196Y-90589000D01*
X147361804Y-90589000D01*
X147486823Y-90601313D01*
X147486823Y-90601313D01*
G37*
G36*
X150026823Y-90601313D02*
G01*
X150187242Y-90649976D01*
X150319906Y-90720886D01*
X150335078Y-90728996D01*
X150464659Y-90835341D01*
X150571004Y-90964922D01*
X150571005Y-90964924D01*
X150650024Y-91112758D01*
X150698687Y-91273177D01*
X150715117Y-91440000D01*
X150698687Y-91606823D01*
X150650024Y-91767242D01*
X150593152Y-91873642D01*
X150571004Y-91915078D01*
X150464659Y-92044659D01*
X150335078Y-92151004D01*
X150335076Y-92151005D01*
X150187242Y-92230024D01*
X150026823Y-92278687D01*
X149901804Y-92291000D01*
X149818196Y-92291000D01*
X149693177Y-92278687D01*
X149532758Y-92230024D01*
X149384924Y-92151005D01*
X149384922Y-92151004D01*
X149255341Y-92044659D01*
X149148996Y-91915078D01*
X149126848Y-91873642D01*
X149069976Y-91767242D01*
X149021313Y-91606823D01*
X149004883Y-91440000D01*
X149021313Y-91273177D01*
X149069976Y-91112758D01*
X149148995Y-90964924D01*
X149148996Y-90964922D01*
X149255341Y-90835341D01*
X149384922Y-90728996D01*
X149400094Y-90720886D01*
X149532758Y-90649976D01*
X149693177Y-90601313D01*
X149818196Y-90589000D01*
X149901804Y-90589000D01*
X150026823Y-90601313D01*
X150026823Y-90601313D01*
G37*
G36*
X152566823Y-90601313D02*
G01*
X152727242Y-90649976D01*
X152859906Y-90720886D01*
X152875078Y-90728996D01*
X153004659Y-90835341D01*
X153111004Y-90964922D01*
X153111005Y-90964924D01*
X153190024Y-91112758D01*
X153238687Y-91273177D01*
X153255117Y-91440000D01*
X153238687Y-91606823D01*
X153190024Y-91767242D01*
X153133152Y-91873642D01*
X153111004Y-91915078D01*
X153004659Y-92044659D01*
X152875078Y-92151004D01*
X152875076Y-92151005D01*
X152727242Y-92230024D01*
X152566823Y-92278687D01*
X152441804Y-92291000D01*
X152358196Y-92291000D01*
X152233177Y-92278687D01*
X152072758Y-92230024D01*
X151924924Y-92151005D01*
X151924922Y-92151004D01*
X151795341Y-92044659D01*
X151688996Y-91915078D01*
X151666848Y-91873642D01*
X151609976Y-91767242D01*
X151561313Y-91606823D01*
X151544883Y-91440000D01*
X151561313Y-91273177D01*
X151609976Y-91112758D01*
X151688995Y-90964924D01*
X151688996Y-90964922D01*
X151795341Y-90835341D01*
X151924922Y-90728996D01*
X151940094Y-90720886D01*
X152072758Y-90649976D01*
X152233177Y-90601313D01*
X152358196Y-90589000D01*
X152441804Y-90589000D01*
X152566823Y-90601313D01*
X152566823Y-90601313D01*
G37*
G36*
X162726823Y-90601313D02*
G01*
X162887242Y-90649976D01*
X163019906Y-90720886D01*
X163035078Y-90728996D01*
X163164659Y-90835341D01*
X163271004Y-90964922D01*
X163271005Y-90964924D01*
X163350024Y-91112758D01*
X163398687Y-91273177D01*
X163415117Y-91440000D01*
X163398687Y-91606823D01*
X163350024Y-91767242D01*
X163293152Y-91873642D01*
X163271004Y-91915078D01*
X163164659Y-92044659D01*
X163035078Y-92151004D01*
X163035076Y-92151005D01*
X162887242Y-92230024D01*
X162726823Y-92278687D01*
X162601804Y-92291000D01*
X162518196Y-92291000D01*
X162393177Y-92278687D01*
X162232758Y-92230024D01*
X162084924Y-92151005D01*
X162084922Y-92151004D01*
X161955341Y-92044659D01*
X161848996Y-91915078D01*
X161826848Y-91873642D01*
X161769976Y-91767242D01*
X161721313Y-91606823D01*
X161704883Y-91440000D01*
X161721313Y-91273177D01*
X161769976Y-91112758D01*
X161848995Y-90964924D01*
X161848996Y-90964922D01*
X161955341Y-90835341D01*
X162084922Y-90728996D01*
X162100094Y-90720886D01*
X162232758Y-90649976D01*
X162393177Y-90601313D01*
X162518196Y-90589000D01*
X162601804Y-90589000D01*
X162726823Y-90601313D01*
X162726823Y-90601313D01*
G37*
G36*
X155106823Y-90601313D02*
G01*
X155267242Y-90649976D01*
X155399906Y-90720886D01*
X155415078Y-90728996D01*
X155544659Y-90835341D01*
X155651004Y-90964922D01*
X155651005Y-90964924D01*
X155730024Y-91112758D01*
X155778687Y-91273177D01*
X155795117Y-91440000D01*
X155778687Y-91606823D01*
X155730024Y-91767242D01*
X155673152Y-91873642D01*
X155651004Y-91915078D01*
X155544659Y-92044659D01*
X155415078Y-92151004D01*
X155415076Y-92151005D01*
X155267242Y-92230024D01*
X155106823Y-92278687D01*
X154981804Y-92291000D01*
X154898196Y-92291000D01*
X154773177Y-92278687D01*
X154612758Y-92230024D01*
X154464924Y-92151005D01*
X154464922Y-92151004D01*
X154335341Y-92044659D01*
X154228996Y-91915078D01*
X154206848Y-91873642D01*
X154149976Y-91767242D01*
X154101313Y-91606823D01*
X154084883Y-91440000D01*
X154101313Y-91273177D01*
X154149976Y-91112758D01*
X154228995Y-90964924D01*
X154228996Y-90964922D01*
X154335341Y-90835341D01*
X154464922Y-90728996D01*
X154480094Y-90720886D01*
X154612758Y-90649976D01*
X154773177Y-90601313D01*
X154898196Y-90589000D01*
X154981804Y-90589000D01*
X155106823Y-90601313D01*
X155106823Y-90601313D01*
G37*
G36*
X122086823Y-90601313D02*
G01*
X122247242Y-90649976D01*
X122379906Y-90720886D01*
X122395078Y-90728996D01*
X122524659Y-90835341D01*
X122631004Y-90964922D01*
X122631005Y-90964924D01*
X122710024Y-91112758D01*
X122758687Y-91273177D01*
X122775117Y-91440000D01*
X122758687Y-91606823D01*
X122710024Y-91767242D01*
X122653152Y-91873642D01*
X122631004Y-91915078D01*
X122524659Y-92044659D01*
X122395078Y-92151004D01*
X122395076Y-92151005D01*
X122247242Y-92230024D01*
X122086823Y-92278687D01*
X121961804Y-92291000D01*
X121878196Y-92291000D01*
X121753177Y-92278687D01*
X121592758Y-92230024D01*
X121444924Y-92151005D01*
X121444922Y-92151004D01*
X121315341Y-92044659D01*
X121208996Y-91915078D01*
X121186848Y-91873642D01*
X121129976Y-91767242D01*
X121081313Y-91606823D01*
X121064883Y-91440000D01*
X121081313Y-91273177D01*
X121129976Y-91112758D01*
X121208995Y-90964924D01*
X121208996Y-90964922D01*
X121315341Y-90835341D01*
X121444922Y-90728996D01*
X121460094Y-90720886D01*
X121592758Y-90649976D01*
X121753177Y-90601313D01*
X121878196Y-90589000D01*
X121961804Y-90589000D01*
X122086823Y-90601313D01*
X122086823Y-90601313D01*
G37*
G36*
X114466823Y-88061313D02*
G01*
X114627242Y-88109976D01*
X114694361Y-88145852D01*
X114775078Y-88188996D01*
X114904659Y-88295341D01*
X115011004Y-88424922D01*
X115011005Y-88424924D01*
X115090024Y-88572758D01*
X115138687Y-88733177D01*
X115155117Y-88900000D01*
X115138687Y-89066823D01*
X115090024Y-89227242D01*
X115049477Y-89303100D01*
X115011004Y-89375078D01*
X114904659Y-89504659D01*
X114775078Y-89611004D01*
X114775076Y-89611005D01*
X114627242Y-89690024D01*
X114466823Y-89738687D01*
X114341804Y-89751000D01*
X114258196Y-89751000D01*
X114133177Y-89738687D01*
X113972758Y-89690024D01*
X113824924Y-89611005D01*
X113824922Y-89611004D01*
X113695341Y-89504659D01*
X113588996Y-89375078D01*
X113550523Y-89303100D01*
X113509976Y-89227242D01*
X113461313Y-89066823D01*
X113444883Y-88900000D01*
X113461313Y-88733177D01*
X113509976Y-88572758D01*
X113588995Y-88424924D01*
X113588996Y-88424922D01*
X113695341Y-88295341D01*
X113824922Y-88188996D01*
X113905639Y-88145852D01*
X113972758Y-88109976D01*
X114133177Y-88061313D01*
X114258196Y-88049000D01*
X114341804Y-88049000D01*
X114466823Y-88061313D01*
X114466823Y-88061313D01*
G37*
G36*
X180588228Y-88081703D02*
G01*
X180743100Y-88145853D01*
X180882481Y-88238985D01*
X181001015Y-88357519D01*
X181094147Y-88496900D01*
X181158297Y-88651772D01*
X181191000Y-88816184D01*
X181191000Y-88983816D01*
X181158297Y-89148228D01*
X181094147Y-89303100D01*
X181001015Y-89442481D01*
X180882481Y-89561015D01*
X180743100Y-89654147D01*
X180588228Y-89718297D01*
X180423816Y-89751000D01*
X180256184Y-89751000D01*
X180091772Y-89718297D01*
X179936900Y-89654147D01*
X179797519Y-89561015D01*
X179678985Y-89442481D01*
X179585853Y-89303100D01*
X179521703Y-89148228D01*
X179489000Y-88983816D01*
X179489000Y-88816184D01*
X179521703Y-88651772D01*
X179585853Y-88496900D01*
X179678985Y-88357519D01*
X179797519Y-88238985D01*
X179936900Y-88145853D01*
X180091772Y-88081703D01*
X180256184Y-88049000D01*
X180423816Y-88049000D01*
X180588228Y-88081703D01*
X180588228Y-88081703D01*
G37*
G36*
X178088228Y-88081703D02*
G01*
X178243100Y-88145853D01*
X178382481Y-88238985D01*
X178501015Y-88357519D01*
X178594147Y-88496900D01*
X178658297Y-88651772D01*
X178691000Y-88816184D01*
X178691000Y-88983816D01*
X178658297Y-89148228D01*
X178594147Y-89303100D01*
X178501015Y-89442481D01*
X178382481Y-89561015D01*
X178243100Y-89654147D01*
X178088228Y-89718297D01*
X177923816Y-89751000D01*
X177756184Y-89751000D01*
X177591772Y-89718297D01*
X177436900Y-89654147D01*
X177297519Y-89561015D01*
X177178985Y-89442481D01*
X177085853Y-89303100D01*
X177021703Y-89148228D01*
X176989000Y-88983816D01*
X176989000Y-88816184D01*
X177021703Y-88651772D01*
X177085853Y-88496900D01*
X177178985Y-88357519D01*
X177297519Y-88238985D01*
X177436900Y-88145853D01*
X177591772Y-88081703D01*
X177756184Y-88049000D01*
X177923816Y-88049000D01*
X178088228Y-88081703D01*
X178088228Y-88081703D01*
G37*
G36*
X100496823Y-88061313D02*
G01*
X100657242Y-88109976D01*
X100724361Y-88145852D01*
X100805078Y-88188996D01*
X100934659Y-88295341D01*
X101041004Y-88424922D01*
X101041005Y-88424924D01*
X101120024Y-88572758D01*
X101168687Y-88733177D01*
X101185117Y-88900000D01*
X101168687Y-89066823D01*
X101120024Y-89227242D01*
X101079477Y-89303100D01*
X101041004Y-89375078D01*
X100934659Y-89504659D01*
X100805078Y-89611004D01*
X100805076Y-89611005D01*
X100657242Y-89690024D01*
X100496823Y-89738687D01*
X100371804Y-89751000D01*
X100288196Y-89751000D01*
X100163177Y-89738687D01*
X100002758Y-89690024D01*
X99854924Y-89611005D01*
X99854922Y-89611004D01*
X99725341Y-89504659D01*
X99618996Y-89375078D01*
X99580523Y-89303100D01*
X99539976Y-89227242D01*
X99491313Y-89066823D01*
X99474883Y-88900000D01*
X99491313Y-88733177D01*
X99539976Y-88572758D01*
X99618995Y-88424924D01*
X99618996Y-88424922D01*
X99725341Y-88295341D01*
X99854922Y-88188996D01*
X99935639Y-88145852D01*
X100002758Y-88109976D01*
X100163177Y-88061313D01*
X100288196Y-88049000D01*
X100371804Y-88049000D01*
X100496823Y-88061313D01*
X100496823Y-88061313D01*
G37*
G36*
X108198228Y-88081703D02*
G01*
X108353100Y-88145853D01*
X108492481Y-88238985D01*
X108611015Y-88357519D01*
X108704147Y-88496900D01*
X108768297Y-88651772D01*
X108801000Y-88816184D01*
X108801000Y-88983816D01*
X108768297Y-89148228D01*
X108704147Y-89303100D01*
X108611015Y-89442481D01*
X108492481Y-89561015D01*
X108353100Y-89654147D01*
X108198228Y-89718297D01*
X108033816Y-89751000D01*
X107866184Y-89751000D01*
X107701772Y-89718297D01*
X107546900Y-89654147D01*
X107407519Y-89561015D01*
X107288985Y-89442481D01*
X107195853Y-89303100D01*
X107131703Y-89148228D01*
X107099000Y-88983816D01*
X107099000Y-88816184D01*
X107131703Y-88651772D01*
X107195853Y-88496900D01*
X107288985Y-88357519D01*
X107407519Y-88238985D01*
X107546900Y-88145853D01*
X107701772Y-88081703D01*
X107866184Y-88049000D01*
X108033816Y-88049000D01*
X108198228Y-88081703D01*
X108198228Y-88081703D01*
G37*
G36*
X122721823Y-81711313D02*
G01*
X122882242Y-81759976D01*
X123014906Y-81830886D01*
X123030078Y-81838996D01*
X123159659Y-81945341D01*
X123266004Y-82074922D01*
X123266005Y-82074924D01*
X123345024Y-82222758D01*
X123393687Y-82383177D01*
X123410117Y-82550000D01*
X123393687Y-82716823D01*
X123345024Y-82877242D01*
X123281284Y-82996491D01*
X123266004Y-83025078D01*
X123159659Y-83154659D01*
X123030078Y-83261004D01*
X123030076Y-83261005D01*
X122882242Y-83340024D01*
X122721823Y-83388687D01*
X122596804Y-83401000D01*
X122513196Y-83401000D01*
X122388177Y-83388687D01*
X122227758Y-83340024D01*
X122079924Y-83261005D01*
X122079922Y-83261004D01*
X121950341Y-83154659D01*
X121843996Y-83025078D01*
X121828716Y-82996491D01*
X121764976Y-82877242D01*
X121716313Y-82716823D01*
X121699883Y-82550000D01*
X121716313Y-82383177D01*
X121764976Y-82222758D01*
X121843995Y-82074924D01*
X121843996Y-82074922D01*
X121950341Y-81945341D01*
X122079922Y-81838996D01*
X122095094Y-81830886D01*
X122227758Y-81759976D01*
X122388177Y-81711313D01*
X122513196Y-81699000D01*
X122596804Y-81699000D01*
X122721823Y-81711313D01*
X122721823Y-81711313D01*
G37*
G36*
X162726823Y-81711313D02*
G01*
X162887242Y-81759976D01*
X163019906Y-81830886D01*
X163035078Y-81838996D01*
X163164659Y-81945341D01*
X163271004Y-82074922D01*
X163271005Y-82074924D01*
X163350024Y-82222758D01*
X163398687Y-82383177D01*
X163415117Y-82550000D01*
X163398687Y-82716823D01*
X163350024Y-82877242D01*
X163286284Y-82996491D01*
X163271004Y-83025078D01*
X163164659Y-83154659D01*
X163035078Y-83261004D01*
X163035076Y-83261005D01*
X162887242Y-83340024D01*
X162726823Y-83388687D01*
X162601804Y-83401000D01*
X162518196Y-83401000D01*
X162393177Y-83388687D01*
X162232758Y-83340024D01*
X162084924Y-83261005D01*
X162084922Y-83261004D01*
X161955341Y-83154659D01*
X161848996Y-83025078D01*
X161833716Y-82996491D01*
X161769976Y-82877242D01*
X161721313Y-82716823D01*
X161704883Y-82550000D01*
X161721313Y-82383177D01*
X161769976Y-82222758D01*
X161848995Y-82074924D01*
X161848996Y-82074922D01*
X161955341Y-81945341D01*
X162084922Y-81838996D01*
X162100094Y-81830886D01*
X162232758Y-81759976D01*
X162393177Y-81711313D01*
X162518196Y-81699000D01*
X162601804Y-81699000D01*
X162726823Y-81711313D01*
X162726823Y-81711313D01*
G37*
G36*
X149391823Y-81711313D02*
G01*
X149552242Y-81759976D01*
X149684906Y-81830886D01*
X149700078Y-81838996D01*
X149829659Y-81945341D01*
X149936004Y-82074922D01*
X149936005Y-82074924D01*
X150015024Y-82222758D01*
X150063687Y-82383177D01*
X150080117Y-82550000D01*
X150063687Y-82716823D01*
X150015024Y-82877242D01*
X149951284Y-82996491D01*
X149936004Y-83025078D01*
X149829659Y-83154659D01*
X149700078Y-83261004D01*
X149700076Y-83261005D01*
X149552242Y-83340024D01*
X149391823Y-83388687D01*
X149266804Y-83401000D01*
X149183196Y-83401000D01*
X149058177Y-83388687D01*
X148897758Y-83340024D01*
X148749924Y-83261005D01*
X148749922Y-83261004D01*
X148620341Y-83154659D01*
X148513996Y-83025078D01*
X148498716Y-82996491D01*
X148434976Y-82877242D01*
X148386313Y-82716823D01*
X148369883Y-82550000D01*
X148386313Y-82383177D01*
X148434976Y-82222758D01*
X148513995Y-82074924D01*
X148513996Y-82074922D01*
X148620341Y-81945341D01*
X148749922Y-81838996D01*
X148765094Y-81830886D01*
X148897758Y-81759976D01*
X149058177Y-81711313D01*
X149183196Y-81699000D01*
X149266804Y-81699000D01*
X149391823Y-81711313D01*
X149391823Y-81711313D01*
G37*
G36*
X109386823Y-81711313D02*
G01*
X109547242Y-81759976D01*
X109679906Y-81830886D01*
X109695078Y-81838996D01*
X109824659Y-81945341D01*
X109931004Y-82074922D01*
X109931005Y-82074924D01*
X110010024Y-82222758D01*
X110058687Y-82383177D01*
X110075117Y-82550000D01*
X110058687Y-82716823D01*
X110010024Y-82877242D01*
X109946284Y-82996491D01*
X109931004Y-83025078D01*
X109824659Y-83154659D01*
X109695078Y-83261004D01*
X109695076Y-83261005D01*
X109547242Y-83340024D01*
X109386823Y-83388687D01*
X109261804Y-83401000D01*
X109178196Y-83401000D01*
X109053177Y-83388687D01*
X108892758Y-83340024D01*
X108744924Y-83261005D01*
X108744922Y-83261004D01*
X108615341Y-83154659D01*
X108508996Y-83025078D01*
X108493716Y-82996491D01*
X108429976Y-82877242D01*
X108381313Y-82716823D01*
X108364883Y-82550000D01*
X108381313Y-82383177D01*
X108429976Y-82222758D01*
X108508995Y-82074924D01*
X108508996Y-82074922D01*
X108615341Y-81945341D01*
X108744922Y-81838996D01*
X108760094Y-81830886D01*
X108892758Y-81759976D01*
X109053177Y-81711313D01*
X109178196Y-81699000D01*
X109261804Y-81699000D01*
X109386823Y-81711313D01*
X109386823Y-81711313D01*
G37*
G36*
X136056823Y-81711313D02*
G01*
X136217242Y-81759976D01*
X136349906Y-81830886D01*
X136365078Y-81838996D01*
X136494659Y-81945341D01*
X136601004Y-82074922D01*
X136601005Y-82074924D01*
X136680024Y-82222758D01*
X136728687Y-82383177D01*
X136745117Y-82550000D01*
X136728687Y-82716823D01*
X136680024Y-82877242D01*
X136616284Y-82996491D01*
X136601004Y-83025078D01*
X136494659Y-83154659D01*
X136365078Y-83261004D01*
X136365076Y-83261005D01*
X136217242Y-83340024D01*
X136056823Y-83388687D01*
X135931804Y-83401000D01*
X135848196Y-83401000D01*
X135723177Y-83388687D01*
X135562758Y-83340024D01*
X135414924Y-83261005D01*
X135414922Y-83261004D01*
X135285341Y-83154659D01*
X135178996Y-83025078D01*
X135163716Y-82996491D01*
X135099976Y-82877242D01*
X135051313Y-82716823D01*
X135034883Y-82550000D01*
X135051313Y-82383177D01*
X135099976Y-82222758D01*
X135178995Y-82074924D01*
X135178996Y-82074922D01*
X135285341Y-81945341D01*
X135414922Y-81838996D01*
X135430094Y-81830886D01*
X135562758Y-81759976D01*
X135723177Y-81711313D01*
X135848196Y-81699000D01*
X135931804Y-81699000D01*
X136056823Y-81711313D01*
X136056823Y-81711313D01*
G37*
G36*
X129017916Y-81757334D02*
G01*
X129126492Y-81790271D01*
X129126495Y-81790272D01*
X129162601Y-81809571D01*
X129226557Y-81843756D01*
X129314264Y-81915736D01*
X129377383Y-81992646D01*
X129394702Y-82009965D01*
X129415077Y-82023579D01*
X129437716Y-82032957D01*
X129461749Y-82037737D01*
X129486253Y-82037737D01*
X129510286Y-82032957D01*
X129532925Y-82023579D01*
X129553299Y-82009966D01*
X129570626Y-81992639D01*
X129584240Y-81972264D01*
X129593618Y-81949625D01*
X129598398Y-81925592D01*
X129599000Y-81913340D01*
X129599000Y-81749000D01*
X130751000Y-81749000D01*
X130751000Y-83351000D01*
X129599000Y-83351000D01*
X129599000Y-83186660D01*
X129596598Y-83162274D01*
X129589485Y-83138825D01*
X129577934Y-83117214D01*
X129562389Y-83098272D01*
X129543447Y-83082727D01*
X129521836Y-83071176D01*
X129498387Y-83064063D01*
X129474001Y-83061661D01*
X129449615Y-83064063D01*
X129426166Y-83071176D01*
X129404555Y-83082727D01*
X129377381Y-83107356D01*
X129314264Y-83184264D01*
X129226556Y-83256244D01*
X129162600Y-83290429D01*
X129126494Y-83309728D01*
X129126491Y-83309729D01*
X129017915Y-83342666D01*
X128905000Y-83353787D01*
X128792084Y-83342666D01*
X128683508Y-83309729D01*
X128683505Y-83309728D01*
X128647399Y-83290429D01*
X128583443Y-83256244D01*
X128495736Y-83184264D01*
X128423756Y-83096556D01*
X128380239Y-83015140D01*
X128366625Y-82994766D01*
X128349298Y-82977439D01*
X128328924Y-82963825D01*
X128306285Y-82954448D01*
X128282251Y-82949668D01*
X128257747Y-82949668D01*
X128233714Y-82954449D01*
X128211075Y-82963826D01*
X128190701Y-82977440D01*
X128173374Y-82994767D01*
X128159762Y-83015140D01*
X128116244Y-83096557D01*
X128044264Y-83184264D01*
X127956556Y-83256244D01*
X127892600Y-83290429D01*
X127856494Y-83309728D01*
X127856491Y-83309729D01*
X127747915Y-83342666D01*
X127635000Y-83353787D01*
X127522084Y-83342666D01*
X127413508Y-83309729D01*
X127413505Y-83309728D01*
X127377399Y-83290429D01*
X127313443Y-83256244D01*
X127225736Y-83184264D01*
X127153756Y-83096556D01*
X127110239Y-83015140D01*
X127100272Y-82996494D01*
X127094492Y-82977440D01*
X127067334Y-82887915D01*
X127059000Y-82803297D01*
X127059000Y-82296702D01*
X127067334Y-82212084D01*
X127100271Y-82103508D01*
X127100272Y-82103505D01*
X127153756Y-82003445D01*
X127153757Y-82003443D01*
X127225737Y-81915736D01*
X127313444Y-81843756D01*
X127377400Y-81809571D01*
X127413506Y-81790272D01*
X127413509Y-81790271D01*
X127522085Y-81757334D01*
X127635000Y-81746213D01*
X127747916Y-81757334D01*
X127856492Y-81790271D01*
X127856495Y-81790272D01*
X127892601Y-81809571D01*
X127956557Y-81843756D01*
X128044264Y-81915736D01*
X128116244Y-82003443D01*
X128132019Y-82032957D01*
X128159761Y-82084859D01*
X128173375Y-82105234D01*
X128190702Y-82122561D01*
X128211076Y-82136174D01*
X128233715Y-82145552D01*
X128257748Y-82150332D01*
X128282252Y-82150332D01*
X128306285Y-82145552D01*
X128328924Y-82136174D01*
X128349299Y-82122560D01*
X128366626Y-82105233D01*
X128380239Y-82084859D01*
X128423756Y-82003445D01*
X128423757Y-82003443D01*
X128495737Y-81915736D01*
X128583444Y-81843756D01*
X128647400Y-81809571D01*
X128683506Y-81790272D01*
X128683509Y-81790271D01*
X128792085Y-81757334D01*
X128905000Y-81746213D01*
X129017916Y-81757334D01*
X129017916Y-81757334D01*
G37*
G36*
X115682916Y-81757334D02*
G01*
X115791492Y-81790271D01*
X115791495Y-81790272D01*
X115827601Y-81809571D01*
X115891557Y-81843756D01*
X115979264Y-81915736D01*
X116042383Y-81992646D01*
X116059702Y-82009965D01*
X116080077Y-82023579D01*
X116102716Y-82032957D01*
X116126749Y-82037737D01*
X116151253Y-82037737D01*
X116175286Y-82032957D01*
X116197925Y-82023579D01*
X116218299Y-82009966D01*
X116235626Y-81992639D01*
X116249240Y-81972264D01*
X116258618Y-81949625D01*
X116263398Y-81925592D01*
X116264000Y-81913340D01*
X116264000Y-81749000D01*
X117416000Y-81749000D01*
X117416000Y-83351000D01*
X116264000Y-83351000D01*
X116264000Y-83186660D01*
X116261598Y-83162274D01*
X116254485Y-83138825D01*
X116242934Y-83117214D01*
X116227389Y-83098272D01*
X116208447Y-83082727D01*
X116186836Y-83071176D01*
X116163387Y-83064063D01*
X116139001Y-83061661D01*
X116114615Y-83064063D01*
X116091166Y-83071176D01*
X116069555Y-83082727D01*
X116042381Y-83107356D01*
X115979264Y-83184264D01*
X115891556Y-83256244D01*
X115827600Y-83290429D01*
X115791494Y-83309728D01*
X115791491Y-83309729D01*
X115682915Y-83342666D01*
X115570000Y-83353787D01*
X115457084Y-83342666D01*
X115348508Y-83309729D01*
X115348505Y-83309728D01*
X115312399Y-83290429D01*
X115248443Y-83256244D01*
X115160736Y-83184264D01*
X115088756Y-83096556D01*
X115045239Y-83015140D01*
X115031625Y-82994766D01*
X115014298Y-82977439D01*
X114993924Y-82963825D01*
X114971285Y-82954448D01*
X114947251Y-82949668D01*
X114922747Y-82949668D01*
X114898714Y-82954449D01*
X114876075Y-82963826D01*
X114855701Y-82977440D01*
X114838374Y-82994767D01*
X114824762Y-83015140D01*
X114781244Y-83096557D01*
X114709264Y-83184264D01*
X114621556Y-83256244D01*
X114557600Y-83290429D01*
X114521494Y-83309728D01*
X114521491Y-83309729D01*
X114412915Y-83342666D01*
X114300000Y-83353787D01*
X114187084Y-83342666D01*
X114078508Y-83309729D01*
X114078505Y-83309728D01*
X114042399Y-83290429D01*
X113978443Y-83256244D01*
X113890736Y-83184264D01*
X113818756Y-83096556D01*
X113775239Y-83015140D01*
X113765272Y-82996494D01*
X113759492Y-82977440D01*
X113732334Y-82887915D01*
X113724000Y-82803297D01*
X113724000Y-82296702D01*
X113732334Y-82212084D01*
X113765271Y-82103508D01*
X113765272Y-82103505D01*
X113818756Y-82003445D01*
X113818757Y-82003443D01*
X113890737Y-81915736D01*
X113978444Y-81843756D01*
X114042400Y-81809571D01*
X114078506Y-81790272D01*
X114078509Y-81790271D01*
X114187085Y-81757334D01*
X114300000Y-81746213D01*
X114412916Y-81757334D01*
X114521492Y-81790271D01*
X114521495Y-81790272D01*
X114557601Y-81809571D01*
X114621557Y-81843756D01*
X114709264Y-81915736D01*
X114781244Y-82003443D01*
X114797019Y-82032957D01*
X114824761Y-82084859D01*
X114838375Y-82105234D01*
X114855702Y-82122561D01*
X114876076Y-82136174D01*
X114898715Y-82145552D01*
X114922748Y-82150332D01*
X114947252Y-82150332D01*
X114971285Y-82145552D01*
X114993924Y-82136174D01*
X115014299Y-82122560D01*
X115031626Y-82105233D01*
X115045239Y-82084859D01*
X115088756Y-82003445D01*
X115088757Y-82003443D01*
X115160737Y-81915736D01*
X115248444Y-81843756D01*
X115312400Y-81809571D01*
X115348506Y-81790272D01*
X115348509Y-81790271D01*
X115457085Y-81757334D01*
X115570000Y-81746213D01*
X115682916Y-81757334D01*
X115682916Y-81757334D01*
G37*
G36*
X155687916Y-81757334D02*
G01*
X155796492Y-81790271D01*
X155796495Y-81790272D01*
X155832601Y-81809571D01*
X155896557Y-81843756D01*
X155984264Y-81915736D01*
X156047383Y-81992646D01*
X156064702Y-82009965D01*
X156085077Y-82023579D01*
X156107716Y-82032957D01*
X156131749Y-82037737D01*
X156156253Y-82037737D01*
X156180286Y-82032957D01*
X156202925Y-82023579D01*
X156223299Y-82009966D01*
X156240626Y-81992639D01*
X156254240Y-81972264D01*
X156263618Y-81949625D01*
X156268398Y-81925592D01*
X156269000Y-81913340D01*
X156269000Y-81749000D01*
X157421000Y-81749000D01*
X157421000Y-83351000D01*
X156269000Y-83351000D01*
X156269000Y-83186660D01*
X156266598Y-83162274D01*
X156259485Y-83138825D01*
X156247934Y-83117214D01*
X156232389Y-83098272D01*
X156213447Y-83082727D01*
X156191836Y-83071176D01*
X156168387Y-83064063D01*
X156144001Y-83061661D01*
X156119615Y-83064063D01*
X156096166Y-83071176D01*
X156074555Y-83082727D01*
X156047381Y-83107356D01*
X155984264Y-83184264D01*
X155896556Y-83256244D01*
X155832600Y-83290429D01*
X155796494Y-83309728D01*
X155796491Y-83309729D01*
X155687915Y-83342666D01*
X155575000Y-83353787D01*
X155462084Y-83342666D01*
X155353508Y-83309729D01*
X155353505Y-83309728D01*
X155317399Y-83290429D01*
X155253443Y-83256244D01*
X155165736Y-83184264D01*
X155093756Y-83096556D01*
X155050239Y-83015140D01*
X155036625Y-82994766D01*
X155019298Y-82977439D01*
X154998924Y-82963825D01*
X154976285Y-82954448D01*
X154952251Y-82949668D01*
X154927747Y-82949668D01*
X154903714Y-82954449D01*
X154881075Y-82963826D01*
X154860701Y-82977440D01*
X154843374Y-82994767D01*
X154829762Y-83015140D01*
X154786244Y-83096557D01*
X154714264Y-83184264D01*
X154626556Y-83256244D01*
X154562600Y-83290429D01*
X154526494Y-83309728D01*
X154526491Y-83309729D01*
X154417915Y-83342666D01*
X154305000Y-83353787D01*
X154192084Y-83342666D01*
X154083508Y-83309729D01*
X154083505Y-83309728D01*
X154047399Y-83290429D01*
X153983443Y-83256244D01*
X153895736Y-83184264D01*
X153823756Y-83096556D01*
X153780239Y-83015140D01*
X153770272Y-82996494D01*
X153764492Y-82977440D01*
X153737334Y-82887915D01*
X153729000Y-82803297D01*
X153729000Y-82296702D01*
X153737334Y-82212084D01*
X153770271Y-82103508D01*
X153770272Y-82103505D01*
X153823756Y-82003445D01*
X153823757Y-82003443D01*
X153895737Y-81915736D01*
X153983444Y-81843756D01*
X154047400Y-81809571D01*
X154083506Y-81790272D01*
X154083509Y-81790271D01*
X154192085Y-81757334D01*
X154305000Y-81746213D01*
X154417916Y-81757334D01*
X154526492Y-81790271D01*
X154526495Y-81790272D01*
X154562601Y-81809571D01*
X154626557Y-81843756D01*
X154714264Y-81915736D01*
X154786244Y-82003443D01*
X154802019Y-82032957D01*
X154829761Y-82084859D01*
X154843375Y-82105234D01*
X154860702Y-82122561D01*
X154881076Y-82136174D01*
X154903715Y-82145552D01*
X154927748Y-82150332D01*
X154952252Y-82150332D01*
X154976285Y-82145552D01*
X154998924Y-82136174D01*
X155019299Y-82122560D01*
X155036626Y-82105233D01*
X155050239Y-82084859D01*
X155093756Y-82003445D01*
X155093757Y-82003443D01*
X155165737Y-81915736D01*
X155253444Y-81843756D01*
X155317400Y-81809571D01*
X155353506Y-81790272D01*
X155353509Y-81790271D01*
X155462085Y-81757334D01*
X155575000Y-81746213D01*
X155687916Y-81757334D01*
X155687916Y-81757334D01*
G37*
G36*
X142352916Y-81757334D02*
G01*
X142461492Y-81790271D01*
X142461495Y-81790272D01*
X142497601Y-81809571D01*
X142561557Y-81843756D01*
X142649264Y-81915736D01*
X142712383Y-81992646D01*
X142729702Y-82009965D01*
X142750077Y-82023579D01*
X142772716Y-82032957D01*
X142796749Y-82037737D01*
X142821253Y-82037737D01*
X142845286Y-82032957D01*
X142867925Y-82023579D01*
X142888299Y-82009966D01*
X142905626Y-81992639D01*
X142919240Y-81972264D01*
X142928618Y-81949625D01*
X142933398Y-81925592D01*
X142934000Y-81913340D01*
X142934000Y-81749000D01*
X144086000Y-81749000D01*
X144086000Y-83351000D01*
X142934000Y-83351000D01*
X142934000Y-83186660D01*
X142931598Y-83162274D01*
X142924485Y-83138825D01*
X142912934Y-83117214D01*
X142897389Y-83098272D01*
X142878447Y-83082727D01*
X142856836Y-83071176D01*
X142833387Y-83064063D01*
X142809001Y-83061661D01*
X142784615Y-83064063D01*
X142761166Y-83071176D01*
X142739555Y-83082727D01*
X142712381Y-83107356D01*
X142649264Y-83184264D01*
X142561556Y-83256244D01*
X142497600Y-83290429D01*
X142461494Y-83309728D01*
X142461491Y-83309729D01*
X142352915Y-83342666D01*
X142240000Y-83353787D01*
X142127084Y-83342666D01*
X142018508Y-83309729D01*
X142018505Y-83309728D01*
X141982399Y-83290429D01*
X141918443Y-83256244D01*
X141830736Y-83184264D01*
X141758756Y-83096556D01*
X141715239Y-83015140D01*
X141701625Y-82994766D01*
X141684298Y-82977439D01*
X141663924Y-82963825D01*
X141641285Y-82954448D01*
X141617251Y-82949668D01*
X141592747Y-82949668D01*
X141568714Y-82954449D01*
X141546075Y-82963826D01*
X141525701Y-82977440D01*
X141508374Y-82994767D01*
X141494762Y-83015140D01*
X141451244Y-83096557D01*
X141379264Y-83184264D01*
X141291556Y-83256244D01*
X141227600Y-83290429D01*
X141191494Y-83309728D01*
X141191491Y-83309729D01*
X141082915Y-83342666D01*
X140970000Y-83353787D01*
X140857084Y-83342666D01*
X140748508Y-83309729D01*
X140748505Y-83309728D01*
X140712399Y-83290429D01*
X140648443Y-83256244D01*
X140560736Y-83184264D01*
X140488756Y-83096556D01*
X140445239Y-83015140D01*
X140435272Y-82996494D01*
X140429492Y-82977440D01*
X140402334Y-82887915D01*
X140394000Y-82803297D01*
X140394000Y-82296702D01*
X140402334Y-82212084D01*
X140435271Y-82103508D01*
X140435272Y-82103505D01*
X140488756Y-82003445D01*
X140488757Y-82003443D01*
X140560737Y-81915736D01*
X140648444Y-81843756D01*
X140712400Y-81809571D01*
X140748506Y-81790272D01*
X140748509Y-81790271D01*
X140857085Y-81757334D01*
X140970000Y-81746213D01*
X141082916Y-81757334D01*
X141191492Y-81790271D01*
X141191495Y-81790272D01*
X141227601Y-81809571D01*
X141291557Y-81843756D01*
X141379264Y-81915736D01*
X141451244Y-82003443D01*
X141467019Y-82032957D01*
X141494761Y-82084859D01*
X141508375Y-82105234D01*
X141525702Y-82122561D01*
X141546076Y-82136174D01*
X141568715Y-82145552D01*
X141592748Y-82150332D01*
X141617252Y-82150332D01*
X141641285Y-82145552D01*
X141663924Y-82136174D01*
X141684299Y-82122560D01*
X141701626Y-82105233D01*
X141715239Y-82084859D01*
X141758756Y-82003445D01*
X141758757Y-82003443D01*
X141830737Y-81915736D01*
X141918444Y-81843756D01*
X141982400Y-81809571D01*
X142018506Y-81790272D01*
X142018509Y-81790271D01*
X142127085Y-81757334D01*
X142240000Y-81746213D01*
X142352916Y-81757334D01*
X142352916Y-81757334D01*
G37*
G36*
X169022916Y-81757334D02*
G01*
X169131492Y-81790271D01*
X169131495Y-81790272D01*
X169167601Y-81809571D01*
X169231557Y-81843756D01*
X169319264Y-81915736D01*
X169382383Y-81992646D01*
X169399702Y-82009965D01*
X169420077Y-82023579D01*
X169442716Y-82032957D01*
X169466749Y-82037737D01*
X169491253Y-82037737D01*
X169515286Y-82032957D01*
X169537925Y-82023579D01*
X169558299Y-82009966D01*
X169575626Y-81992639D01*
X169589240Y-81972264D01*
X169598618Y-81949625D01*
X169603398Y-81925592D01*
X169604000Y-81913340D01*
X169604000Y-81749000D01*
X170756000Y-81749000D01*
X170756000Y-83351000D01*
X169604000Y-83351000D01*
X169604000Y-83186660D01*
X169601598Y-83162274D01*
X169594485Y-83138825D01*
X169582934Y-83117214D01*
X169567389Y-83098272D01*
X169548447Y-83082727D01*
X169526836Y-83071176D01*
X169503387Y-83064063D01*
X169479001Y-83061661D01*
X169454615Y-83064063D01*
X169431166Y-83071176D01*
X169409555Y-83082727D01*
X169382381Y-83107356D01*
X169319264Y-83184264D01*
X169231556Y-83256244D01*
X169167600Y-83290429D01*
X169131494Y-83309728D01*
X169131491Y-83309729D01*
X169022915Y-83342666D01*
X168910000Y-83353787D01*
X168797084Y-83342666D01*
X168688508Y-83309729D01*
X168688505Y-83309728D01*
X168652399Y-83290429D01*
X168588443Y-83256244D01*
X168500736Y-83184264D01*
X168428756Y-83096556D01*
X168385239Y-83015140D01*
X168371625Y-82994766D01*
X168354298Y-82977439D01*
X168333924Y-82963825D01*
X168311285Y-82954448D01*
X168287251Y-82949668D01*
X168262747Y-82949668D01*
X168238714Y-82954449D01*
X168216075Y-82963826D01*
X168195701Y-82977440D01*
X168178374Y-82994767D01*
X168164762Y-83015140D01*
X168121244Y-83096557D01*
X168049264Y-83184264D01*
X167961556Y-83256244D01*
X167897600Y-83290429D01*
X167861494Y-83309728D01*
X167861491Y-83309729D01*
X167752915Y-83342666D01*
X167640000Y-83353787D01*
X167527084Y-83342666D01*
X167418508Y-83309729D01*
X167418505Y-83309728D01*
X167382399Y-83290429D01*
X167318443Y-83256244D01*
X167230736Y-83184264D01*
X167158756Y-83096556D01*
X167115239Y-83015140D01*
X167105272Y-82996494D01*
X167099492Y-82977440D01*
X167072334Y-82887915D01*
X167064000Y-82803297D01*
X167064000Y-82296702D01*
X167072334Y-82212084D01*
X167105271Y-82103508D01*
X167105272Y-82103505D01*
X167158756Y-82003445D01*
X167158757Y-82003443D01*
X167230737Y-81915736D01*
X167318444Y-81843756D01*
X167382400Y-81809571D01*
X167418506Y-81790272D01*
X167418509Y-81790271D01*
X167527085Y-81757334D01*
X167640000Y-81746213D01*
X167752916Y-81757334D01*
X167861492Y-81790271D01*
X167861495Y-81790272D01*
X167897601Y-81809571D01*
X167961557Y-81843756D01*
X168049264Y-81915736D01*
X168121244Y-82003443D01*
X168137019Y-82032957D01*
X168164761Y-82084859D01*
X168178375Y-82105234D01*
X168195702Y-82122561D01*
X168216076Y-82136174D01*
X168238715Y-82145552D01*
X168262748Y-82150332D01*
X168287252Y-82150332D01*
X168311285Y-82145552D01*
X168333924Y-82136174D01*
X168354299Y-82122560D01*
X168371626Y-82105233D01*
X168385239Y-82084859D01*
X168428756Y-82003445D01*
X168428757Y-82003443D01*
X168500737Y-81915736D01*
X168588444Y-81843756D01*
X168652400Y-81809571D01*
X168688506Y-81790272D01*
X168688509Y-81790271D01*
X168797085Y-81757334D01*
X168910000Y-81746213D01*
X169022916Y-81757334D01*
X169022916Y-81757334D01*
G37*
G36*
X130355547Y-75062326D02*
G01*
X130529156Y-75114990D01*
X130529158Y-75114991D01*
X130689155Y-75200511D01*
X130829397Y-75315603D01*
X130884222Y-75382409D01*
X130944489Y-75455844D01*
X131030010Y-75615843D01*
X131082674Y-75789452D01*
X131096000Y-75924756D01*
X131096000Y-76475243D01*
X131082674Y-76610548D01*
X131030010Y-76784157D01*
X130944489Y-76944156D01*
X130908729Y-76987729D01*
X130829397Y-77084397D01*
X130732729Y-77163729D01*
X130689156Y-77199489D01*
X130529157Y-77285010D01*
X130355548Y-77337674D01*
X130175000Y-77355456D01*
X129994453Y-77337674D01*
X129820844Y-77285010D01*
X129660845Y-77199489D01*
X129617272Y-77163729D01*
X129520604Y-77084397D01*
X129405513Y-76944157D01*
X129405512Y-76944155D01*
X129319990Y-76784157D01*
X129267326Y-76610548D01*
X129254000Y-76475244D01*
X129254000Y-75924757D01*
X129267326Y-75789453D01*
X129319990Y-75615844D01*
X129405511Y-75455845D01*
X129405512Y-75455844D01*
X129520603Y-75315603D01*
X129646388Y-75212375D01*
X129660844Y-75200511D01*
X129820843Y-75114990D01*
X129994452Y-75062326D01*
X130175000Y-75044544D01*
X130355547Y-75062326D01*
X130355547Y-75062326D01*
G37*
G36*
X117020547Y-75062326D02*
G01*
X117194156Y-75114990D01*
X117194158Y-75114991D01*
X117354155Y-75200511D01*
X117494397Y-75315603D01*
X117549222Y-75382409D01*
X117609489Y-75455844D01*
X117695010Y-75615843D01*
X117747674Y-75789452D01*
X117761000Y-75924756D01*
X117761000Y-76475243D01*
X117747674Y-76610548D01*
X117695010Y-76784157D01*
X117609489Y-76944156D01*
X117573729Y-76987729D01*
X117494397Y-77084397D01*
X117397729Y-77163729D01*
X117354156Y-77199489D01*
X117194157Y-77285010D01*
X117020548Y-77337674D01*
X116840000Y-77355456D01*
X116659453Y-77337674D01*
X116485844Y-77285010D01*
X116325845Y-77199489D01*
X116282272Y-77163729D01*
X116185604Y-77084397D01*
X116070513Y-76944157D01*
X116070512Y-76944155D01*
X115984990Y-76784157D01*
X115932326Y-76610548D01*
X115919000Y-76475244D01*
X115919000Y-75924757D01*
X115932326Y-75789453D01*
X115984990Y-75615844D01*
X116070511Y-75455845D01*
X116070512Y-75455844D01*
X116185603Y-75315603D01*
X116311388Y-75212375D01*
X116325844Y-75200511D01*
X116485843Y-75114990D01*
X116659452Y-75062326D01*
X116840000Y-75044544D01*
X117020547Y-75062326D01*
X117020547Y-75062326D01*
G37*
G36*
X170360547Y-75062326D02*
G01*
X170534156Y-75114990D01*
X170534158Y-75114991D01*
X170694155Y-75200511D01*
X170834397Y-75315603D01*
X170889222Y-75382409D01*
X170949489Y-75455844D01*
X171035010Y-75615843D01*
X171087674Y-75789452D01*
X171101000Y-75924756D01*
X171101000Y-76475243D01*
X171087674Y-76610548D01*
X171035010Y-76784157D01*
X170949489Y-76944156D01*
X170913729Y-76987729D01*
X170834397Y-77084397D01*
X170737729Y-77163729D01*
X170694156Y-77199489D01*
X170534157Y-77285010D01*
X170360548Y-77337674D01*
X170180000Y-77355456D01*
X169999453Y-77337674D01*
X169825844Y-77285010D01*
X169665845Y-77199489D01*
X169622272Y-77163729D01*
X169525604Y-77084397D01*
X169410513Y-76944157D01*
X169410512Y-76944155D01*
X169324990Y-76784157D01*
X169272326Y-76610548D01*
X169259000Y-76475244D01*
X169259000Y-75924757D01*
X169272326Y-75789453D01*
X169324990Y-75615844D01*
X169410511Y-75455845D01*
X169410512Y-75455844D01*
X169525603Y-75315603D01*
X169651388Y-75212375D01*
X169665844Y-75200511D01*
X169825843Y-75114990D01*
X169999452Y-75062326D01*
X170180000Y-75044544D01*
X170360547Y-75062326D01*
X170360547Y-75062326D01*
G37*
G36*
X157025547Y-75062326D02*
G01*
X157199156Y-75114990D01*
X157199158Y-75114991D01*
X157359155Y-75200511D01*
X157499397Y-75315603D01*
X157554222Y-75382409D01*
X157614489Y-75455844D01*
X157700010Y-75615843D01*
X157752674Y-75789452D01*
X157766000Y-75924756D01*
X157766000Y-76475243D01*
X157752674Y-76610548D01*
X157700010Y-76784157D01*
X157614489Y-76944156D01*
X157578729Y-76987729D01*
X157499397Y-77084397D01*
X157402729Y-77163729D01*
X157359156Y-77199489D01*
X157199157Y-77285010D01*
X157025548Y-77337674D01*
X156845000Y-77355456D01*
X156664453Y-77337674D01*
X156490844Y-77285010D01*
X156330845Y-77199489D01*
X156287272Y-77163729D01*
X156190604Y-77084397D01*
X156075513Y-76944157D01*
X156075512Y-76944155D01*
X155989990Y-76784157D01*
X155937326Y-76610548D01*
X155924000Y-76475244D01*
X155924000Y-75924757D01*
X155937326Y-75789453D01*
X155989990Y-75615844D01*
X156075511Y-75455845D01*
X156075512Y-75455844D01*
X156190603Y-75315603D01*
X156316388Y-75212375D01*
X156330844Y-75200511D01*
X156490843Y-75114990D01*
X156664452Y-75062326D01*
X156845000Y-75044544D01*
X157025547Y-75062326D01*
X157025547Y-75062326D01*
G37*
G36*
X143690547Y-75062326D02*
G01*
X143864156Y-75114990D01*
X143864158Y-75114991D01*
X144024155Y-75200511D01*
X144164397Y-75315603D01*
X144219222Y-75382409D01*
X144279489Y-75455844D01*
X144365010Y-75615843D01*
X144417674Y-75789452D01*
X144431000Y-75924756D01*
X144431000Y-76475243D01*
X144417674Y-76610548D01*
X144365010Y-76784157D01*
X144279489Y-76944156D01*
X144243729Y-76987729D01*
X144164397Y-77084397D01*
X144067729Y-77163729D01*
X144024156Y-77199489D01*
X143864157Y-77285010D01*
X143690548Y-77337674D01*
X143510000Y-77355456D01*
X143329453Y-77337674D01*
X143155844Y-77285010D01*
X142995845Y-77199489D01*
X142952272Y-77163729D01*
X142855604Y-77084397D01*
X142740513Y-76944157D01*
X142740512Y-76944155D01*
X142654990Y-76784157D01*
X142602326Y-76610548D01*
X142589000Y-76475244D01*
X142589000Y-75924757D01*
X142602326Y-75789453D01*
X142654990Y-75615844D01*
X142740511Y-75455845D01*
X142740512Y-75455844D01*
X142855603Y-75315603D01*
X142981388Y-75212375D01*
X142995844Y-75200511D01*
X143155843Y-75114990D01*
X143329452Y-75062326D01*
X143510000Y-75044544D01*
X143690547Y-75062326D01*
X143690547Y-75062326D01*
G37*
G36*
X141749561Y-75052966D02*
G01*
X141782383Y-75062923D01*
X141812632Y-75079092D01*
X141839148Y-75100852D01*
X141860908Y-75127368D01*
X141877077Y-75157617D01*
X141887034Y-75190439D01*
X141891000Y-75230713D01*
X141891000Y-77169287D01*
X141887034Y-77209561D01*
X141877077Y-77242383D01*
X141860908Y-77272632D01*
X141839148Y-77299148D01*
X141812632Y-77320908D01*
X141782383Y-77337077D01*
X141749561Y-77347034D01*
X141709287Y-77351000D01*
X140230713Y-77351000D01*
X140190439Y-77347034D01*
X140157617Y-77337077D01*
X140127368Y-77320908D01*
X140100852Y-77299148D01*
X140079092Y-77272632D01*
X140062923Y-77242383D01*
X140052966Y-77209561D01*
X140049000Y-77169287D01*
X140049000Y-75230713D01*
X140052966Y-75190439D01*
X140062923Y-75157617D01*
X140079092Y-75127368D01*
X140100852Y-75100852D01*
X140127368Y-75079092D01*
X140157617Y-75062923D01*
X140190439Y-75052966D01*
X140230713Y-75049000D01*
X141709287Y-75049000D01*
X141749561Y-75052966D01*
X141749561Y-75052966D01*
G37*
G36*
X155084561Y-75052966D02*
G01*
X155117383Y-75062923D01*
X155147632Y-75079092D01*
X155174148Y-75100852D01*
X155195908Y-75127368D01*
X155212077Y-75157617D01*
X155222034Y-75190439D01*
X155226000Y-75230713D01*
X155226000Y-77169287D01*
X155222034Y-77209561D01*
X155212077Y-77242383D01*
X155195908Y-77272632D01*
X155174148Y-77299148D01*
X155147632Y-77320908D01*
X155117383Y-77337077D01*
X155084561Y-77347034D01*
X155044287Y-77351000D01*
X153565713Y-77351000D01*
X153525439Y-77347034D01*
X153492617Y-77337077D01*
X153462368Y-77320908D01*
X153435852Y-77299148D01*
X153414092Y-77272632D01*
X153397923Y-77242383D01*
X153387966Y-77209561D01*
X153384000Y-77169287D01*
X153384000Y-75230713D01*
X153387966Y-75190439D01*
X153397923Y-75157617D01*
X153414092Y-75127368D01*
X153435852Y-75100852D01*
X153462368Y-75079092D01*
X153492617Y-75062923D01*
X153525439Y-75052966D01*
X153565713Y-75049000D01*
X155044287Y-75049000D01*
X155084561Y-75052966D01*
X155084561Y-75052966D01*
G37*
G36*
X168419561Y-75052966D02*
G01*
X168452383Y-75062923D01*
X168482632Y-75079092D01*
X168509148Y-75100852D01*
X168530908Y-75127368D01*
X168547077Y-75157617D01*
X168557034Y-75190439D01*
X168561000Y-75230713D01*
X168561000Y-77169287D01*
X168557034Y-77209561D01*
X168547077Y-77242383D01*
X168530908Y-77272632D01*
X168509148Y-77299148D01*
X168482632Y-77320908D01*
X168452383Y-77337077D01*
X168419561Y-77347034D01*
X168379287Y-77351000D01*
X166900713Y-77351000D01*
X166860439Y-77347034D01*
X166827617Y-77337077D01*
X166797368Y-77320908D01*
X166770852Y-77299148D01*
X166749092Y-77272632D01*
X166732923Y-77242383D01*
X166722966Y-77209561D01*
X166719000Y-77169287D01*
X166719000Y-75230713D01*
X166722966Y-75190439D01*
X166732923Y-75157617D01*
X166749092Y-75127368D01*
X166770852Y-75100852D01*
X166797368Y-75079092D01*
X166827617Y-75062923D01*
X166860439Y-75052966D01*
X166900713Y-75049000D01*
X168379287Y-75049000D01*
X168419561Y-75052966D01*
X168419561Y-75052966D01*
G37*
G36*
X115079561Y-75052966D02*
G01*
X115112383Y-75062923D01*
X115142632Y-75079092D01*
X115169148Y-75100852D01*
X115190908Y-75127368D01*
X115207077Y-75157617D01*
X115217034Y-75190439D01*
X115221000Y-75230713D01*
X115221000Y-77169287D01*
X115217034Y-77209561D01*
X115207077Y-77242383D01*
X115190908Y-77272632D01*
X115169148Y-77299148D01*
X115142632Y-77320908D01*
X115112383Y-77337077D01*
X115079561Y-77347034D01*
X115039287Y-77351000D01*
X113560713Y-77351000D01*
X113520439Y-77347034D01*
X113487617Y-77337077D01*
X113457368Y-77320908D01*
X113430852Y-77299148D01*
X113409092Y-77272632D01*
X113392923Y-77242383D01*
X113382966Y-77209561D01*
X113379000Y-77169287D01*
X113379000Y-75230713D01*
X113382966Y-75190439D01*
X113392923Y-75157617D01*
X113409092Y-75127368D01*
X113430852Y-75100852D01*
X113457368Y-75079092D01*
X113487617Y-75062923D01*
X113520439Y-75052966D01*
X113560713Y-75049000D01*
X115039287Y-75049000D01*
X115079561Y-75052966D01*
X115079561Y-75052966D01*
G37*
G36*
X128414561Y-75052966D02*
G01*
X128447383Y-75062923D01*
X128477632Y-75079092D01*
X128504148Y-75100852D01*
X128525908Y-75127368D01*
X128542077Y-75157617D01*
X128552034Y-75190439D01*
X128556000Y-75230713D01*
X128556000Y-77169287D01*
X128552034Y-77209561D01*
X128542077Y-77242383D01*
X128525908Y-77272632D01*
X128504148Y-77299148D01*
X128477632Y-77320908D01*
X128447383Y-77337077D01*
X128414561Y-77347034D01*
X128374287Y-77351000D01*
X126895713Y-77351000D01*
X126855439Y-77347034D01*
X126822617Y-77337077D01*
X126792368Y-77320908D01*
X126765852Y-77299148D01*
X126744092Y-77272632D01*
X126727923Y-77242383D01*
X126717966Y-77209561D01*
X126714000Y-77169287D01*
X126714000Y-75230713D01*
X126717966Y-75190439D01*
X126727923Y-75157617D01*
X126744092Y-75127368D01*
X126765852Y-75100852D01*
X126792368Y-75079092D01*
X126822617Y-75062923D01*
X126855439Y-75052966D01*
X126895713Y-75049000D01*
X128374287Y-75049000D01*
X128414561Y-75052966D01*
X128414561Y-75052966D01*
G37*
G36*
X179372585Y-73408802D02*
G01*
X179522410Y-73438604D01*
X179804674Y-73555521D01*
X180058705Y-73725259D01*
X180274741Y-73941295D01*
X180444479Y-74195326D01*
X180561396Y-74477590D01*
X180561396Y-74477591D01*
X180621000Y-74777239D01*
X180621000Y-75082761D01*
X180617401Y-75100852D01*
X180561396Y-75382410D01*
X180444479Y-75664674D01*
X180274741Y-75918705D01*
X180058705Y-76134741D01*
X179804674Y-76304479D01*
X179522410Y-76421396D01*
X179372585Y-76451198D01*
X179222761Y-76481000D01*
X178917239Y-76481000D01*
X178767415Y-76451198D01*
X178617590Y-76421396D01*
X178335326Y-76304479D01*
X178081295Y-76134741D01*
X177865259Y-75918705D01*
X177695521Y-75664674D01*
X177578604Y-75382410D01*
X177522599Y-75100852D01*
X177519000Y-75082761D01*
X177519000Y-74777239D01*
X177578604Y-74477591D01*
X177578604Y-74477590D01*
X177695521Y-74195326D01*
X177865259Y-73941295D01*
X178081295Y-73725259D01*
X178335326Y-73555521D01*
X178617590Y-73438604D01*
X178767415Y-73408802D01*
X178917239Y-73379000D01*
X179222761Y-73379000D01*
X179372585Y-73408802D01*
X179372585Y-73408802D01*
G37*
G36*
X100632585Y-73408802D02*
G01*
X100782410Y-73438604D01*
X101064674Y-73555521D01*
X101318705Y-73725259D01*
X101534741Y-73941295D01*
X101704479Y-74195326D01*
X101821396Y-74477590D01*
X101821396Y-74477591D01*
X101881000Y-74777239D01*
X101881000Y-75082761D01*
X101877401Y-75100852D01*
X101821396Y-75382410D01*
X101704479Y-75664674D01*
X101534741Y-75918705D01*
X101318705Y-76134741D01*
X101064674Y-76304479D01*
X100782410Y-76421396D01*
X100632585Y-76451198D01*
X100482761Y-76481000D01*
X100177239Y-76481000D01*
X100027415Y-76451198D01*
X99877590Y-76421396D01*
X99595326Y-76304479D01*
X99341295Y-76134741D01*
X99125259Y-75918705D01*
X98955521Y-75664674D01*
X98838604Y-75382410D01*
X98782599Y-75100852D01*
X98779000Y-75082761D01*
X98779000Y-74777239D01*
X98838604Y-74477591D01*
X98838604Y-74477590D01*
X98955521Y-74195326D01*
X99125259Y-73941295D01*
X99341295Y-73725259D01*
X99595326Y-73555521D01*
X99877590Y-73438604D01*
X100027415Y-73408802D01*
X100177239Y-73379000D01*
X100482761Y-73379000D01*
X100632585Y-73408802D01*
X100632585Y-73408802D01*
G37*
G36*
X136138228Y-74111703D02*
G01*
X136293100Y-74175853D01*
X136432481Y-74268985D01*
X136551015Y-74387519D01*
X136644147Y-74526900D01*
X136708297Y-74681772D01*
X136741000Y-74846184D01*
X136741000Y-75013816D01*
X136708297Y-75178228D01*
X136644147Y-75333100D01*
X136551015Y-75472481D01*
X136432481Y-75591015D01*
X136293100Y-75684147D01*
X136138228Y-75748297D01*
X135973816Y-75781000D01*
X135806184Y-75781000D01*
X135641772Y-75748297D01*
X135486900Y-75684147D01*
X135347519Y-75591015D01*
X135228985Y-75472481D01*
X135135853Y-75333100D01*
X135071703Y-75178228D01*
X135039000Y-75013816D01*
X135039000Y-74846184D01*
X135071703Y-74681772D01*
X135135853Y-74526900D01*
X135228985Y-74387519D01*
X135347519Y-74268985D01*
X135486900Y-74175853D01*
X135641772Y-74111703D01*
X135806184Y-74079000D01*
X135973816Y-74079000D01*
X136138228Y-74111703D01*
X136138228Y-74111703D01*
G37*
G36*
X162808228Y-74111703D02*
G01*
X162963100Y-74175853D01*
X163102481Y-74268985D01*
X163221015Y-74387519D01*
X163314147Y-74526900D01*
X163378297Y-74681772D01*
X163411000Y-74846184D01*
X163411000Y-75013816D01*
X163378297Y-75178228D01*
X163314147Y-75333100D01*
X163221015Y-75472481D01*
X163102481Y-75591015D01*
X162963100Y-75684147D01*
X162808228Y-75748297D01*
X162643816Y-75781000D01*
X162476184Y-75781000D01*
X162311772Y-75748297D01*
X162156900Y-75684147D01*
X162017519Y-75591015D01*
X161898985Y-75472481D01*
X161805853Y-75333100D01*
X161741703Y-75178228D01*
X161709000Y-75013816D01*
X161709000Y-74846184D01*
X161741703Y-74681772D01*
X161805853Y-74526900D01*
X161898985Y-74387519D01*
X162017519Y-74268985D01*
X162156900Y-74175853D01*
X162311772Y-74111703D01*
X162476184Y-74079000D01*
X162643816Y-74079000D01*
X162808228Y-74111703D01*
X162808228Y-74111703D01*
G37*
G36*
X109468228Y-74111703D02*
G01*
X109623100Y-74175853D01*
X109762481Y-74268985D01*
X109881015Y-74387519D01*
X109974147Y-74526900D01*
X110038297Y-74681772D01*
X110071000Y-74846184D01*
X110071000Y-75013816D01*
X110038297Y-75178228D01*
X109974147Y-75333100D01*
X109881015Y-75472481D01*
X109762481Y-75591015D01*
X109623100Y-75684147D01*
X109468228Y-75748297D01*
X109303816Y-75781000D01*
X109136184Y-75781000D01*
X108971772Y-75748297D01*
X108816900Y-75684147D01*
X108677519Y-75591015D01*
X108558985Y-75472481D01*
X108465853Y-75333100D01*
X108401703Y-75178228D01*
X108369000Y-75013816D01*
X108369000Y-74846184D01*
X108401703Y-74681772D01*
X108465853Y-74526900D01*
X108558985Y-74387519D01*
X108677519Y-74268985D01*
X108816900Y-74175853D01*
X108971772Y-74111703D01*
X109136184Y-74079000D01*
X109303816Y-74079000D01*
X109468228Y-74111703D01*
X109468228Y-74111703D01*
G37*
G36*
X122803228Y-74111703D02*
G01*
X122958100Y-74175853D01*
X123097481Y-74268985D01*
X123216015Y-74387519D01*
X123309147Y-74526900D01*
X123373297Y-74681772D01*
X123406000Y-74846184D01*
X123406000Y-75013816D01*
X123373297Y-75178228D01*
X123309147Y-75333100D01*
X123216015Y-75472481D01*
X123097481Y-75591015D01*
X122958100Y-75684147D01*
X122803228Y-75748297D01*
X122638816Y-75781000D01*
X122471184Y-75781000D01*
X122306772Y-75748297D01*
X122151900Y-75684147D01*
X122012519Y-75591015D01*
X121893985Y-75472481D01*
X121800853Y-75333100D01*
X121736703Y-75178228D01*
X121704000Y-75013816D01*
X121704000Y-74846184D01*
X121736703Y-74681772D01*
X121800853Y-74526900D01*
X121893985Y-74387519D01*
X122012519Y-74268985D01*
X122151900Y-74175853D01*
X122306772Y-74111703D01*
X122471184Y-74079000D01*
X122638816Y-74079000D01*
X122803228Y-74111703D01*
X122803228Y-74111703D01*
G37*
G36*
X149473228Y-74111703D02*
G01*
X149628100Y-74175853D01*
X149767481Y-74268985D01*
X149886015Y-74387519D01*
X149979147Y-74526900D01*
X150043297Y-74681772D01*
X150076000Y-74846184D01*
X150076000Y-75013816D01*
X150043297Y-75178228D01*
X149979147Y-75333100D01*
X149886015Y-75472481D01*
X149767481Y-75591015D01*
X149628100Y-75684147D01*
X149473228Y-75748297D01*
X149308816Y-75781000D01*
X149141184Y-75781000D01*
X148976772Y-75748297D01*
X148821900Y-75684147D01*
X148682519Y-75591015D01*
X148563985Y-75472481D01*
X148470853Y-75333100D01*
X148406703Y-75178228D01*
X148374000Y-75013816D01*
X148374000Y-74846184D01*
X148406703Y-74681772D01*
X148470853Y-74526900D01*
X148563985Y-74387519D01*
X148682519Y-74268985D01*
X148821900Y-74175853D01*
X148976772Y-74111703D01*
X149141184Y-74079000D01*
X149308816Y-74079000D01*
X149473228Y-74111703D01*
X149473228Y-74111703D01*
G37*
M02*
